solid Visualization Toolkit generated SLA File
 facet normal 0 0 -1
  outer loop
   vertex 0.125122 0.125124 1
   vertex 0.125093 9.33974e-07 1
   vertex -9.35318e-07 0.125093 1
  endloop
 endfacet
 facet normal 0 0 -1
  outer loop
   vertex -4.06285e-07 3.99761e-07 1
   vertex -9.35318e-07 0.125093 1
   vertex 0.125093 9.33974e-07 1
  endloop
 endfacet
 facet normal 0 0 -1
  outer loop
   vertex -0.504604 -0.378445 1
   vertex -0.503318 -0.251814 1
   vertex -0.377351 -0.377347 1
  endloop
 endfacet
 facet normal 0 0 -1
  outer loop
   vertex -0.376548 -0.251096 1
   vertex -0.377351 -0.377347 1
   vertex -0.503318 -0.251814 1
  endloop
 endfacet
 facet normal 0 0 -1
  outer loop
   vertex -0.377351 -0.377347 1
   vertex -0.376548 -0.251096 1
   vertex -0.251106 -0.376546 1
  endloop
 endfacet
 facet normal 0 0 -1
  outer loop
   vertex -0.250648 -0.250645 1
   vertex -0.251106 -0.376546 1
   vertex -0.376548 -0.251096 1
  endloop
 endfacet
 facet normal 0 0 -1
  outer loop
   vertex 0.125414 -0.37606 1
   vertex -1.12991e-05 -0.375901 1
   vertex 0.125221 -0.250399 1
  endloop
 endfacet
 facet normal 0 0 -1
  outer loop
   vertex -3.41781e-06 -0.250322 1
   vertex 0.125221 -0.250399 1
   vertex -1.12991e-05 -0.375901 1
  endloop
 endfacet
 facet normal 0 0 -1
  outer loop
   vertex 0.251096 -0.376546 1
   vertex 0.125414 -0.37606 1
   vertex 0.250645 -0.250645 1
  endloop
 endfacet
 facet normal 0 0 -1
  outer loop
   vertex 0.125221 -0.250399 1
   vertex 0.250645 -0.250645 1
   vertex 0.125414 -0.37606 1
  endloop
 endfacet
 facet normal 0 0 -1
  outer loop
   vertex -0.37606 0.125432 1
   vertex -0.2504 0.125226 1
   vertex -0.375901 1.09412e-05 1
  endloop
 endfacet
 facet normal 0 0 -1
  outer loop
   vertex -0.250323 3.30967e-06 1
   vertex -0.375901 1.09412e-05 1
   vertex -0.2504 0.125226 1
  endloop
 endfacet
 facet normal 0 0 -1
  outer loop
   vertex -0.376548 0.251106 1
   vertex -0.250648 0.250648 1
   vertex -0.37606 0.125432 1
  endloop
 endfacet
 facet normal 0 0 -1
  outer loop
   vertex -0.2504 0.125226 1
   vertex -0.37606 0.125432 1
   vertex -0.250648 0.250648 1
  endloop
 endfacet
 facet normal 0 0 -1
  outer loop
   vertex 0.250399 0.125227 1
   vertex 0.250322 3.41746e-06 1
   vertex 0.125122 0.125124 1
  endloop
 endfacet
 facet normal 0 0 -1
  outer loop
   vertex 0.125122 0.125124 1
   vertex 0.250322 3.41746e-06 1
   vertex 0.125093 9.33974e-07 1
  endloop
 endfacet
 facet normal 0 0 -1
  outer loop
   vertex 0.125221 0.2504 1
   vertex 0.125122 0.125124 1
   vertex -3.41779e-06 0.250323 1
  endloop
 endfacet
 facet normal 0 0 -1
  outer loop
   vertex -3.41779e-06 0.250323 1
   vertex 0.125122 0.125124 1
   vertex -9.35318e-07 0.125093 1
  endloop
 endfacet
 facet normal 0 0 -1
  outer loop
   vertex 0.250645 0.250648 1
   vertex 0.250399 0.125227 1
   vertex 0.125221 0.2504 1
  endloop
 endfacet
 facet normal 0 0 -1
  outer loop
   vertex 0.125122 0.125124 1
   vertex 0.125221 0.2504 1
   vertex 0.250399 0.125227 1
  endloop
 endfacet
 facet normal 0 0 -1
  outer loop
   vertex -0.125124 -0.125122 1
   vertex -0.125093 9.06872e-07 1
   vertex -9.3533e-07 -0.125093 1
  endloop
 endfacet
 facet normal 0 0 -1
  outer loop
   vertex -4.06285e-07 3.99761e-07 1
   vertex -9.3533e-07 -0.125093 1
   vertex -0.125093 9.06872e-07 1
  endloop
 endfacet
 facet normal 0 0 -1
  outer loop
   vertex 0.125122 -0.125122 1
   vertex -9.3533e-07 -0.125093 1
   vertex 0.125093 9.33974e-07 1
  endloop
 endfacet
 facet normal -0 0 -1
  outer loop
   vertex 0.125093 9.33974e-07 1
   vertex -9.3533e-07 -0.125093 1
   vertex -4.06285e-07 3.99761e-07 1
  endloop
 endfacet
 facet normal 0 0 -1
  outer loop
   vertex 0.502435 -0.125735 1
   vertex 0.37606 -0.125414 1
   vertex 0.502143 3.29573e-05 1
  endloop
 endfacet
 facet normal 0 0 -1
  outer loop
   vertex 0.502143 3.29573e-05 1
   vertex 0.37606 -0.125414 1
   vertex 0.375901 1.12988e-05 1
  endloop
 endfacet
 facet normal 0 0 -1
  outer loop
   vertex -0.125124 0.125124 1
   vertex -9.35318e-07 0.125093 1
   vertex -0.125093 9.06872e-07 1
  endloop
 endfacet
 facet normal 0 0 -1
  outer loop
   vertex -9.35318e-07 0.125093 1
   vertex -4.06285e-07 3.99761e-07 1
   vertex -0.125093 9.06872e-07 1
  endloop
 endfacet
 facet normal 0 0 -1
  outer loop
   vertex -0.125786 0.502435 1
   vertex -3.29577e-05 0.502143 1
   vertex -0.125432 0.37606 1
  endloop
 endfacet
 facet normal 0 0 -1
  outer loop
   vertex -3.29577e-05 0.502143 1
   vertex -1.12991e-05 0.375901 1
   vertex -0.125432 0.37606 1
  endloop
 endfacet
 facet normal 0 0 -1
  outer loop
   vertex 0.502435 0.125786 1
   vertex 0.502143 3.29573e-05 1
   vertex 0.37606 0.125432 1
  endloop
 endfacet
 facet normal 0 0 -1
  outer loop
   vertex 0.37606 0.125432 1
   vertex 0.502143 3.29573e-05 1
   vertex 0.375901 1.12988e-05 1
  endloop
 endfacet
 facet normal 0 0 -1
  outer loop
   vertex 0.125735 0.502435 1
   vertex 0.125414 0.37606 1
   vertex -3.29577e-05 0.502143 1
  endloop
 endfacet
 facet normal 0 0 -1
  outer loop
   vertex -1.12991e-05 0.375901 1
   vertex -3.29577e-05 0.502143 1
   vertex 0.125414 0.37606 1
  endloop
 endfacet
 facet normal 0 0 -1
  outer loop
   vertex 0.377347 0.377351 1
   vertex 0.378445 0.504604 1
   vertex 0.504602 0.378457 1
  endloop
 endfacet
 facet normal 0 0 -1
  outer loop
   vertex 0.505624 0.505628 1
   vertex 0.504602 0.378457 1
   vertex 0.378445 0.504604 1
  endloop
 endfacet
 facet normal 0 0 -1
  outer loop
   vertex -0.125432 -0.37606 1
   vertex -0.125227 -0.250399 1
   vertex -1.12991e-05 -0.375901 1
  endloop
 endfacet
 facet normal 0 0 -1
  outer loop
   vertex -3.41781e-06 -0.250322 1
   vertex -1.12991e-05 -0.375901 1
   vertex -0.125227 -0.250399 1
  endloop
 endfacet
 facet normal 0 0 -1
  outer loop
   vertex -0.251106 -0.376546 1
   vertex -0.250648 -0.250645 1
   vertex -0.125432 -0.37606 1
  endloop
 endfacet
 facet normal 0 0 -1
  outer loop
   vertex -0.250648 -0.250645 1
   vertex -0.125227 -0.250399 1
   vertex -0.125432 -0.37606 1
  endloop
 endfacet
 facet normal 0 0 -1
  outer loop
   vertex -0.37606 -0.125414 1
   vertex -0.375901 1.09412e-05 1
   vertex -0.2504 -0.125221 1
  endloop
 endfacet
 facet normal 0 0 -1
  outer loop
   vertex -0.250323 3.30967e-06 1
   vertex -0.2504 -0.125221 1
   vertex -0.375901 1.09412e-05 1
  endloop
 endfacet
 facet normal 0 0 -1
  outer loop
   vertex -0.376548 -0.251096 1
   vertex -0.37606 -0.125414 1
   vertex -0.250648 -0.250645 1
  endloop
 endfacet
 facet normal 0 0 -1
  outer loop
   vertex -0.2504 -0.125221 1
   vertex -0.250648 -0.250645 1
   vertex -0.37606 -0.125414 1
  endloop
 endfacet
 facet normal 0 0 -1
  outer loop
   vertex -0.125227 -0.250399 1
   vertex -0.125124 -0.125122 1
   vertex -3.41781e-06 -0.250322 1
  endloop
 endfacet
 facet normal -0 0 -1
  outer loop
   vertex -0.125124 -0.125122 1
   vertex -9.3533e-07 -0.125093 1
   vertex -3.41781e-06 -0.250322 1
  endloop
 endfacet
 facet normal 0 0 -1
  outer loop
   vertex -0.2504 -0.125221 1
   vertex -0.250323 3.30967e-06 1
   vertex -0.125124 -0.125122 1
  endloop
 endfacet
 facet normal 0 0 -1
  outer loop
   vertex -0.125093 9.06872e-07 1
   vertex -0.125124 -0.125122 1
   vertex -0.250323 3.30967e-06 1
  endloop
 endfacet
 facet normal 0 0 -1
  outer loop
   vertex -0.250648 -0.250645 1
   vertex -0.2504 -0.125221 1
   vertex -0.125227 -0.250399 1
  endloop
 endfacet
 facet normal 0 0 -1
  outer loop
   vertex -0.125124 -0.125122 1
   vertex -0.125227 -0.250399 1
   vertex -0.2504 -0.125221 1
  endloop
 endfacet
 facet normal 0 0 -1
  outer loop
   vertex 0.377347 -0.377347 1
   vertex 0.251096 -0.376546 1
   vertex 0.376546 -0.251096 1
  endloop
 endfacet
 facet normal 0 0 -1
  outer loop
   vertex 0.250645 -0.250645 1
   vertex 0.376546 -0.251096 1
   vertex 0.251096 -0.376546 1
  endloop
 endfacet
 facet normal 0 0 -1
  outer loop
   vertex 0.125221 -0.250399 1
   vertex -3.41781e-06 -0.250322 1
   vertex 0.125122 -0.125122 1
  endloop
 endfacet
 facet normal 0 0 -1
  outer loop
   vertex -9.3533e-07 -0.125093 1
   vertex 0.125122 -0.125122 1
   vertex -3.41781e-06 -0.250322 1
  endloop
 endfacet
 facet normal 0 0 -1
  outer loop
   vertex 0.250399 -0.125221 1
   vertex 0.125122 -0.125122 1
   vertex 0.250322 3.41746e-06 1
  endloop
 endfacet
 facet normal 0 0 -1
  outer loop
   vertex 0.125093 9.33974e-07 1
   vertex 0.250322 3.41746e-06 1
   vertex 0.125122 -0.125122 1
  endloop
 endfacet
 facet normal 0 0 -1
  outer loop
   vertex 0.250645 -0.250645 1
   vertex 0.125221 -0.250399 1
   vertex 0.250399 -0.125221 1
  endloop
 endfacet
 facet normal 0 0 -1
  outer loop
   vertex 0.125122 -0.125122 1
   vertex 0.250399 -0.125221 1
   vertex 0.125221 -0.250399 1
  endloop
 endfacet
 facet normal 0 0 -1
  outer loop
   vertex 0.503318 -0.251813 1
   vertex 0.376546 -0.251096 1
   vertex 0.502435 -0.125735 1
  endloop
 endfacet
 facet normal 0 0 -1
  outer loop
   vertex 0.37606 -0.125414 1
   vertex 0.502435 -0.125735 1
   vertex 0.376546 -0.251096 1
  endloop
 endfacet
 facet normal 0 0 -1
  outer loop
   vertex 0.37606 -0.125414 1
   vertex 0.250399 -0.125221 1
   vertex 0.375901 1.12988e-05 1
  endloop
 endfacet
 facet normal -0 0 -1
  outer loop
   vertex 0.375901 1.12988e-05 1
   vertex 0.250399 -0.125221 1
   vertex 0.250322 3.41746e-06 1
  endloop
 endfacet
 facet normal 0 0 -1
  outer loop
   vertex 0.376546 -0.251096 1
   vertex 0.250645 -0.250645 1
   vertex 0.37606 -0.125414 1
  endloop
 endfacet
 facet normal 0 0 -1
  outer loop
   vertex 0.250645 -0.250645 1
   vertex 0.250399 -0.125221 1
   vertex 0.37606 -0.125414 1
  endloop
 endfacet
 facet normal 0 0 -1
  outer loop
   vertex -0.2504 0.125226 1
   vertex -0.125124 0.125124 1
   vertex -0.250323 3.30967e-06 1
  endloop
 endfacet
 facet normal 0 0 -1
  outer loop
   vertex -0.250323 3.30967e-06 1
   vertex -0.125124 0.125124 1
   vertex -0.125093 9.06872e-07 1
  endloop
 endfacet
 facet normal 0 0 -1
  outer loop
   vertex -0.125227 0.2504 1
   vertex -3.41779e-06 0.250323 1
   vertex -0.125124 0.125124 1
  endloop
 endfacet
 facet normal 0 0 -1
  outer loop
   vertex -9.35318e-07 0.125093 1
   vertex -0.125124 0.125124 1
   vertex -3.41779e-06 0.250323 1
  endloop
 endfacet
 facet normal 0 0 -1
  outer loop
   vertex -0.250648 0.250648 1
   vertex -0.125227 0.2504 1
   vertex -0.2504 0.125226 1
  endloop
 endfacet
 facet normal 0 0 -1
  outer loop
   vertex -0.2504 0.125226 1
   vertex -0.125227 0.2504 1
   vertex -0.125124 0.125124 1
  endloop
 endfacet
 facet normal 0 0 -1
  outer loop
   vertex -0.378457 0.504603 1
   vertex -0.251841 0.503318 1
   vertex -0.377351 0.377351 1
  endloop
 endfacet
 facet normal 0 0 -1
  outer loop
   vertex -0.251106 0.376548 1
   vertex -0.377351 0.377351 1
   vertex -0.251841 0.503318 1
  endloop
 endfacet
 facet normal 0 0 -1
  outer loop
   vertex -0.377351 0.377351 1
   vertex -0.251106 0.376548 1
   vertex -0.376548 0.251106 1
  endloop
 endfacet
 facet normal -0 0 -1
  outer loop
   vertex -0.376548 0.251106 1
   vertex -0.251106 0.376548 1
   vertex -0.250648 0.250648 1
  endloop
 endfacet
 facet normal 0 0 -1
  outer loop
   vertex -0.125432 0.37606 1
   vertex -1.12991e-05 0.375901 1
   vertex -0.125227 0.2504 1
  endloop
 endfacet
 facet normal 0 0 -1
  outer loop
   vertex -3.41779e-06 0.250323 1
   vertex -0.125227 0.2504 1
   vertex -1.12991e-05 0.375901 1
  endloop
 endfacet
 facet normal 0 0 -1
  outer loop
   vertex -0.251841 0.503318 1
   vertex -0.125786 0.502435 1
   vertex -0.251106 0.376548 1
  endloop
 endfacet
 facet normal 0 0 -1
  outer loop
   vertex -0.125432 0.37606 1
   vertex -0.251106 0.376548 1
   vertex -0.125786 0.502435 1
  endloop
 endfacet
 facet normal 0 0 -1
  outer loop
   vertex -0.251106 0.376548 1
   vertex -0.125432 0.37606 1
   vertex -0.250648 0.250648 1
  endloop
 endfacet
 facet normal 0 0 -1
  outer loop
   vertex -0.125227 0.2504 1
   vertex -0.250648 0.250648 1
   vertex -0.125432 0.37606 1
  endloop
 endfacet
 facet normal 0 0 -1
  outer loop
   vertex 0.37606 0.125432 1
   vertex 0.375901 1.12988e-05 1
   vertex 0.250399 0.125227 1
  endloop
 endfacet
 facet normal 0 0 -1
  outer loop
   vertex 0.250322 3.41746e-06 1
   vertex 0.250399 0.125227 1
   vertex 0.375901 1.12988e-05 1
  endloop
 endfacet
 facet normal 0 0 -1
  outer loop
   vertex 0.503318 0.251841 1
   vertex 0.502435 0.125786 1
   vertex 0.376546 0.251106 1
  endloop
 endfacet
 facet normal 0 0 -1
  outer loop
   vertex 0.37606 0.125432 1
   vertex 0.376546 0.251106 1
   vertex 0.502435 0.125786 1
  endloop
 endfacet
 facet normal 0 0 -1
  outer loop
   vertex 0.376546 0.251106 1
   vertex 0.37606 0.125432 1
   vertex 0.250645 0.250648 1
  endloop
 endfacet
 facet normal -0 0 -1
  outer loop
   vertex 0.37606 0.125432 1
   vertex 0.250399 0.125227 1
   vertex 0.250645 0.250648 1
  endloop
 endfacet
 facet normal 0 0 -1
  outer loop
   vertex 0.125414 0.37606 1
   vertex 0.125221 0.2504 1
   vertex -1.12991e-05 0.375901 1
  endloop
 endfacet
 facet normal 0 0 -1
  outer loop
   vertex -3.41779e-06 0.250323 1
   vertex -1.12991e-05 0.375901 1
   vertex 0.125221 0.2504 1
  endloop
 endfacet
 facet normal 0 0 -1
  outer loop
   vertex 0.251813 0.503318 1
   vertex 0.251096 0.376548 1
   vertex 0.125735 0.502435 1
  endloop
 endfacet
 facet normal 0 0 -1
  outer loop
   vertex 0.125735 0.502435 1
   vertex 0.251096 0.376548 1
   vertex 0.125414 0.37606 1
  endloop
 endfacet
 facet normal 0 0 -1
  outer loop
   vertex 0.251096 0.376548 1
   vertex 0.250645 0.250648 1
   vertex 0.125414 0.37606 1
  endloop
 endfacet
 facet normal 0 0 -1
  outer loop
   vertex 0.125221 0.2504 1
   vertex 0.125414 0.37606 1
   vertex 0.250645 0.250648 1
  endloop
 endfacet
 facet normal 0 0 -1
  outer loop
   vertex 0.504602 0.378457 1
   vertex 0.503318 0.251841 1
   vertex 0.377347 0.377351 1
  endloop
 endfacet
 facet normal 0 0 -1
  outer loop
   vertex 0.377347 0.377351 1
   vertex 0.503318 0.251841 1
   vertex 0.376546 0.251106 1
  endloop
 endfacet
 facet normal 0 0 -1
  outer loop
   vertex 0.378445 0.504604 1
   vertex 0.377347 0.377351 1
   vertex 0.251813 0.503318 1
  endloop
 endfacet
 facet normal 0 0 -1
  outer loop
   vertex 0.251096 0.376548 1
   vertex 0.251813 0.503318 1
   vertex 0.377347 0.377351 1
  endloop
 endfacet
 facet normal 0 0 -1
  outer loop
   vertex 0.377347 0.377351 1
   vertex 0.376546 0.251106 1
   vertex 0.251096 0.376548 1
  endloop
 endfacet
 facet normal 0 0 -1
  outer loop
   vertex 0.250645 0.250648 1
   vertex 0.251096 0.376548 1
   vertex 0.376546 0.251106 1
  endloop
 endfacet
endsolid
