solid Onshape-s3
  facet normal 0 0 -1
    outer loop
      vertex 1 6.12323e-17 -1
      vertex 0.99976 -0.0218909 -1
      vertex 0 6.12323e-17 -1
    endloop
  endfacet
  facet normal 0 0 -1
    outer loop
      vertex 1 6.12323e-17 -1
      vertex 0 6.12323e-17 -1
      vertex 0.99976 0.0218909 -1
    endloop
  endfacet
  facet normal 0 0 -1
    outer loop
      vertex 0.996168 0.0874586 -1
      vertex 0.997844 0.0656307 -1
      vertex 0 6.12323e-17 -1
    endloop
  endfacet
  facet normal 0 0 -1
    outer loop
      vertex 0.997844 0.0656307 -1
      vertex 0.999042 0.0437713 -1
      vertex 0 6.12323e-17 -1
    endloop
  endfacet
  facet normal 0 0 -1
    outer loop
      vertex 0 6.12323e-17 -1
      vertex 0.999042 0.0437713 -1
      vertex 0.99976 0.0218909 -1
    endloop
  endfacet
  facet normal 0 0 -1
    outer loop
      vertex 0.98828 0.152649 -1
      vertex 0.991385 0.130978 -1
      vertex 0 6.12323e-17 -1
    endloop
  endfacet
  facet normal 0 0 -1
    outer loop
      vertex 0.991385 0.130978 -1
      vertex 0.994015 0.109245 -1
      vertex 0 6.12323e-17 -1
    endloop
  endfacet
  facet normal 0 0 -1
    outer loop
      vertex 0 6.12323e-17 -1
      vertex 0.994015 0.109245 -1
      vertex 0.996168 0.0874586 -1
    endloop
  endfacet
  facet normal 0 0 -1
    outer loop
      vertex 0.976131 0.217182 -1
      vertex 0.980652 0.195761 -1
      vertex 0 6.12323e-17 -1
    endloop
  endfacet
  facet normal 0 0 -1
    outer loop
      vertex 0.980652 0.195761 -1
      vertex 0.984702 0.174247 -1
      vertex 0 6.12323e-17 -1
    endloop
  endfacet
  facet normal 0 0 -1
    outer loop
      vertex 0 6.12323e-17 -1
      vertex 0.984702 0.174247 -1
      vertex 0.98828 0.152649 -1
    endloop
  endfacet
  facet normal 0 0 -1
    outer loop
      vertex 0.959773 0.280778 -1
      vertex 0.965689 0.2597 -1
      vertex 0 6.12323e-17 -1
    endloop
  endfacet
  facet normal 0 0 -1
    outer loop
      vertex 0.965689 0.2597 -1
      vertex 0.971143 0.238498 -1
      vertex 0 6.12323e-17 -1
    endloop
  endfacet
  facet normal 0 0 -1
    outer loop
      vertex 0 6.12323e-17 -1
      vertex 0.971143 0.238498 -1
      vertex 0.976131 0.217182 -1
    endloop
  endfacet
  facet normal 0 0 -1
    outer loop
      vertex 0.939276 0.343163 -1
      vertex 0.946563 0.322519 -1
      vertex 0 6.12323e-17 -1
    endloop
  endfacet
  facet normal 0 0 -1
    outer loop
      vertex 0.946563 0.322519 -1
      vertex 0.953396 0.301721 -1
      vertex 0 6.12323e-17 -1
    endloop
  endfacet
  facet normal 0 0 -1
    outer loop
      vertex 0 6.12323e-17 -1
      vertex 0.953396 0.301721 -1
      vertex 0.959773 0.280778 -1
    endloop
  endfacet
  facet normal 0 0 -1
    outer loop
      vertex 0.914729 0.404068 -1
      vertex 0.923355 0.383947 -1
      vertex 0 6.12323e-17 -1
    endloop
  endfacet
  facet normal 0 0 -1
    outer loop
      vertex 0.923355 0.383947 -1
      vertex 0.931539 0.363642 -1
      vertex 0 6.12323e-17 -1
    endloop
  endfacet
  facet normal 0 0 -1
    outer loop
      vertex 0 6.12323e-17 -1
      vertex 0.931539 0.363642 -1
      vertex 0.939276 0.343163 -1
    endloop
  endfacet
  facet normal 0 0 -1
    outer loop
      vertex 0.886237 0.463231 -1
      vertex 0.896166 0.44372 -1
      vertex 0 6.12323e-17 -1
    endloop
  endfacet
  facet normal 0 0 -1
    outer loop
      vertex 0.896166 0.44372 -1
      vertex 0.905664 0.423996 -1
      vertex 0 6.12323e-17 -1
    endloop
  endfacet
  facet normal 0 0 -1
    outer loop
      vertex 0 6.12323e-17 -1
      vertex 0.905664 0.423996 -1
      vertex 0.914729 0.404068 -1
    endloop
  endfacet
  facet normal 0 0 -1
    outer loop
      vertex 0.853924 0.520397 -1
      vertex 0.865112 0.501579 -1
      vertex 0 6.12323e-17 -1
    endloop
  endfacet
  facet normal 0 0 -1
    outer loop
      vertex 0.865112 0.501579 -1
      vertex 0.875884 0.482521 -1
      vertex 0 6.12323e-17 -1
    endloop
  endfacet
  facet normal 0 0 -1
    outer loop
      vertex 0 6.12323e-17 -1
      vertex 0.875884 0.482521 -1
      vertex 0.886237 0.463231 -1
    endloop
  endfacet
  facet normal 0 0 -1
    outer loop
      vertex 0.817929 0.575319 -1
      vertex 0.830328 0.557276 -1
      vertex 0 6.12323e-17 -1
    endloop
  endfacet
  facet normal 0 0 -1
    outer loop
      vertex 0.830328 0.557276 -1
      vertex 0.842328 0.538965 -1
      vertex 0 6.12323e-17 -1
    endloop
  endfacet
  facet normal 0 0 -1
    outer loop
      vertex 0 6.12323e-17 -1
      vertex 0.842328 0.538965 -1
      vertex 0.853924 0.520397 -1
    endloop
  endfacet
  facet normal 0 0 -1
    outer loop
      vertex 0.778407 0.62776 -1
      vertex 0.791963 0.610569 -1
      vertex 0 6.12323e-17 -1
    endloop
  endfacet
  facet normal 0 0 -1
    outer loop
      vertex 0.791963 0.610569 -1
      vertex 0.805139 0.593086 -1
      vertex 0 6.12323e-17 -1
    endloop
  endfacet
  facet normal 0 0 -1
    outer loop
      vertex 0 6.12323e-17 -1
      vertex 0.805139 0.593086 -1
      vertex 0.817929 0.575319 -1
    endloop
  endfacet
  facet normal 0 0 -1
    outer loop
      vertex 0.735529 0.677493 -1
      vertex 0.750183 0.66123 -1
      vertex 0 6.12323e-17 -1
    endloop
  endfacet
  facet normal 0 0 -1
    outer loop
      vertex 0.750183 0.66123 -1
      vertex 0.764479 0.644649 -1
      vertex 0 6.12323e-17 -1
    endloop
  endfacet
  facet normal 0 0 -1
    outer loop
      vertex 0 6.12323e-17 -1
      vertex 0.764479 0.644649 -1
      vertex 0.778407 0.62776 -1
    endloop
  endfacet
  facet normal 0 0 -1
    outer loop
      vertex 0.689479 0.724306 -1
      vertex 0.705169 0.709039 -1
      vertex 0 6.12323e-17 -1
    endloop
  endfacet
  facet normal 0 0 -1
    outer loop
      vertex 0.705169 0.709039 -1
      vertex 0.720522 0.693433 -1
      vertex 0 6.12323e-17 -1
    endloop
  endfacet
  facet normal 0 0 -1
    outer loop
      vertex 0 6.12323e-17 -1
      vertex 0.720522 0.693433 -1
      vertex 0.735529 0.677493 -1
    endloop
  endfacet
  facet normal 0 0 -1
    outer loop
      vertex 0.640455 0.767995 -1
      vertex 0.657114 0.753791 -1
      vertex 0 6.12323e-17 -1
    endloop
  endfacet
  facet normal 0 0 -1
    outer loop
      vertex 0.657114 0.753791 -1
      vertex 0.673458 0.739226 -1
      vertex 0 6.12323e-17 -1
    endloop
  endfacet
  facet normal 0 0 -1
    outer loop
      vertex 0 6.12323e-17 -1
      vertex 0.673458 0.739226 -1
      vertex 0.689479 0.724306 -1
    endloop
  endfacet
  facet normal 0 0 -1
    outer loop
      vertex 0.58867 0.808373 -1
      vertex 0.606225 0.795293 -1
      vertex 0 6.12323e-17 -1
    endloop
  endfacet
  facet normal 0 0 -1
    outer loop
      vertex 0.606225 0.795293 -1
      vertex 0.62349 0.781832 -1
      vertex 0 6.12323e-17 -1
    endloop
  endfacet
  facet normal 0 0 -1
    outer loop
      vertex 0 6.12323e-17 -1
      vertex 0.62349 0.781832 -1
      vertex 0.640455 0.767995 -1
    endloop
  endfacet
  facet normal 0 0 -1
    outer loop
      vertex 0.534347 0.845265 -1
      vertex 0.552723 0.833365 -1
      vertex 0 6.12323e-17 -1
    endloop
  endfacet
  facet normal 0 0 -1
    outer loop
      vertex 0.552723 0.833365 -1
      vertex 0.570833 0.821066 -1
      vertex 0 6.12323e-17 -1
    endloop
  endfacet
  facet normal 0 0 -1
    outer loop
      vertex 0 6.12323e-17 -1
      vertex 0.570833 0.821066 -1
      vertex 0.58867 0.808373 -1
    endloop
  endfacet
  facet normal 0 0 -1
    outer loop
      vertex 0.47772 0.878512 -1
      vertex 0.496837 0.867844 -1
      vertex 0 6.12323e-17 -1
    endloop
  endfacet
  facet normal 0 0 -1
    outer loop
      vertex 0.496837 0.867844 -1
      vertex 0.515716 0.85676 -1
      vertex 0 6.12323e-17 -1
    endloop
  endfacet
  facet normal 0 0 -1
    outer loop
      vertex 0 6.12323e-17 -1
      vertex 0.515716 0.85676 -1
      vertex 0.534347 0.845265 -1
    endloop
  endfacet
  facet normal 0 0 -1
    outer loop
      vertex 0.419032 0.907971 -1
      vertex 0.438808 0.898581 -1
      vertex 0 6.12323e-17 -1
    endloop
  endfacet
  facet normal 0 0 -1
    outer loop
      vertex 0.438808 0.898581 -1
      vertex 0.458374 0.888759 -1
      vertex 0 6.12323e-17 -1
    endloop
  endfacet
  facet normal 0 0 -1
    outer loop
      vertex 0 6.12323e-17 -1
      vertex 0.458374 0.888759 -1
      vertex 0.47772 0.878512 -1
    endloop
  endfacet
  facet normal 0 0 -1
    outer loop
      vertex 0.358538 0.933515 -1
      vertex 0.378888 0.925443 -1
      vertex 0 6.12323e-17 -1
    endloop
  endfacet
  facet normal 0 0 -1
    outer loop
      vertex 0.378888 0.925443 -1
      vertex 0.399056 0.916927 -1
      vertex 0 6.12323e-17 -1
    endloop
  endfacet
  facet normal 0 0 -1
    outer loop
      vertex 0 6.12323e-17 -1
      vertex 0.399056 0.916927 -1
      vertex 0.419032 0.907971 -1
    endloop
  endfacet
  facet normal 0 0 -1
    outer loop
      vertex 0.296498 0.955033 -1
      vertex 0.317333 0.948314 -1
      vertex 0 6.12323e-17 -1
    endloop
  endfacet
  facet normal 0 0 -1
    outer loop
      vertex 0.317333 0.948314 -1
      vertex 0.338017 0.94114 -1
      vertex 0 6.12323e-17 -1
    endloop
  endfacet
  facet normal 0 0 -1
    outer loop
      vertex 0 6.12323e-17 -1
      vertex 0.338017 0.94114 -1
      vertex 0.358538 0.933515 -1
    endloop
  endfacet
  facet normal 0 0 -1
    outer loop
      vertex 0.233179 0.972434 -1
      vertex 0.254411 0.967096 -1
      vertex 0 6.12323e-17 -1
    endloop
  endfacet
  facet normal 0 0 -1
    outer loop
      vertex 0.254411 0.967096 -1
      vertex 0.27552 0.961295 -1
      vertex 0 6.12323e-17 -1
    endloop
  endfacet
  facet normal 0 0 -1
    outer loop
      vertex 0 6.12323e-17 -1
      vertex 0.27552 0.961295 -1
      vertex 0.296498 0.955033 -1
    endloop
  endfacet
  facet normal 0 0 -1
    outer loop
      vertex 0.168855 0.985641 -1
      vertex 0.190391 0.981708 -1
      vertex 0 6.12323e-17 -1
    endloop
  endfacet
  facet normal 0 0 -1
    outer loop
      vertex 0.190391 0.981708 -1
      vertex 0.211836 0.977305 -1
      vertex 0 6.12323e-17 -1
    endloop
  endfacet
  facet normal 0 0 -1
    outer loop
      vertex 0 6.12323e-17 -1
      vertex 0.211836 0.977305 -1
      vertex 0.233179 0.972434 -1
    endloop
  endfacet
  facet normal 0 0 -1
    outer loop
      vertex 0.103803 0.994598 -1
      vertex 0.12555 0.992087 -1
      vertex 0 6.12323e-17 -1
    endloop
  endfacet
  facet normal 0 0 -1
    outer loop
      vertex 0.12555 0.992087 -1
      vertex 0.147238 0.989101 -1
      vertex 0 6.12323e-17 -1
    endloop
  endfacet
  facet normal 0 0 -1
    outer loop
      vertex 0 6.12323e-17 -1
      vertex 0.147238 0.989101 -1
      vertex 0.168855 0.985641 -1
    endloop
  endfacet
  facet normal 0 0 -1
    outer loop
      vertex 0.0383027 0.999266 -1
      vertex 0.0601684 0.998188 -1
      vertex 0 6.12323e-17 -1
    endloop
  endfacet
  facet normal 0 0 -1
    outer loop
      vertex 0.0601684 0.998188 -1
      vertex 0.0820052 0.996632 -1
      vertex 0 6.12323e-17 -1
    endloop
  endfacet
  facet normal 0 0 -1
    outer loop
      vertex 0 6.12323e-17 -1
      vertex 0.0820052 0.996632 -1
      vertex 0.103803 0.994598 -1
    endloop
  endfacet
  facet normal 0 0 -1
    outer loop
      vertex -0.0273624 0.999626 -1
      vertex -0.00547313 0.999985 -1
      vertex 0 6.12323e-17 -1
    endloop
  endfacet
  facet normal 0 0 -1
    outer loop
      vertex -0.00547313 0.999985 -1
      vertex 0.0164187 0.999865 -1
      vertex 0 6.12323e-17 -1
    endloop
  endfacet
  facet normal 0 0 -1
    outer loop
      vertex 0 6.12323e-17 -1
      vertex 0.0164187 0.999865 -1
      vertex 0.0383027 0.999266 -1
    endloop
  endfacet
  facet normal 0 0 -1
    outer loop
      vertex -0.0929095 0.995675 -1
      vertex -0.071091 0.99747 -1
      vertex 0 6.12323e-17 -1
    endloop
  endfacet
  facet normal 0 0 -1
    outer loop
      vertex -0.071091 0.99747 -1
      vertex -0.0492385 0.998787 -1
      vertex 0 6.12323e-17 -1
    endloop
  endfacet
  facet normal 0 0 -1
    outer loop
      vertex 0 6.12323e-17 -1
      vertex -0.0492385 0.998787 -1
      vertex -0.0273624 0.999626 -1
    endloop
  endfacet
  facet normal 0 0 -1
    outer loop
      vertex -0.158056 0.98743 -1
      vertex -0.136402 0.990654 -1
      vertex 0 6.12323e-17 -1
    endloop
  endfacet
  facet normal 0 0 -1
    outer loop
      vertex -0.136402 0.990654 -1
      vertex -0.114683 0.993402 -1
      vertex 0 6.12323e-17 -1
    endloop
  endfacet
  facet normal 0 0 -1
    outer loop
      vertex 0 6.12323e-17 -1
      vertex -0.114683 0.993402 -1
      vertex -0.0929095 0.995675 -1
    endloop
  endfacet
  facet normal 0 0 -1
    outer loop
      vertex -0.222521 0.974928 -1
      vertex -0.201126 0.979565 -1
      vertex 0 6.12323e-17 -1
    endloop
  endfacet
  facet normal 0 0 -1
    outer loop
      vertex -0.201126 0.979565 -1
      vertex -0.179634 0.983734 -1
      vertex 0 6.12323e-17 -1
    endloop
  endfacet
  facet normal 0 0 -1
    outer loop
      vertex 0 6.12323e-17 -1
      vertex -0.179634 0.983734 -1
      vertex -0.158056 0.98743 -1
    endloop
  endfacet
  facet normal 0 0 -1
    outer loop
      vertex -0.286026 0.958222 -1
      vertex -0.264982 0.964253 -1
      vertex 0 6.12323e-17 -1
    endloop
  endfacet
  facet normal 0 0 -1
    outer loop
      vertex -0.264982 0.964253 -1
      vertex -0.24381 0.969823 -1
      vertex 0 6.12323e-17 -1
    endloop
  endfacet
  facet normal 0 0 -1
    outer loop
      vertex 0 6.12323e-17 -1
      vertex -0.24381 0.969823 -1
      vertex -0.222521 0.974928 -1
    endloop
  endfacet
  facet normal 0 0 -1
    outer loop
      vertex -0.348298 0.937384 -1
      vertex -0.327695 0.944784 -1
      vertex 0 6.12323e-17 -1
    endloop
  endfacet
  facet normal 0 0 -1
    outer loop
      vertex -0.327695 0.944784 -1
      vertex -0.306934 0.951731 -1
      vertex 0 6.12323e-17 -1
    endloop
  endfacet
  facet normal 0 0 -1
    outer loop
      vertex 0 6.12323e-17 -1
      vertex -0.306934 0.951731 -1
      vertex -0.286026 0.958222 -1
    endloop
  endfacet
  facet normal 0 0 -1
    outer loop
      vertex -0.409069 0.912504 -1
      vertex -0.388995 0.92124 -1
      vertex 0 6.12323e-17 -1
    endloop
  endfacet
  facet normal 0 0 -1
    outer loop
      vertex -0.388995 0.92124 -1
      vertex -0.368735 0.929534 -1
      vertex 0 6.12323e-17 -1
    endloop
  endfacet
  facet normal 0 0 -1
    outer loop
      vertex 0 6.12323e-17 -1
      vertex -0.368735 0.929534 -1
      vertex -0.348298 0.937384 -1
    endloop
  endfacet
  facet normal 0 0 -1
    outer loop
      vertex -0.468075 0.883689 -1
      vertex -0.448618 0.893724 -1
      vertex 0 6.12323e-17 -1
    endloop
  endfacet
  facet normal 0 0 -1
    outer loop
      vertex -0.448618 0.893724 -1
      vertex -0.428946 0.90333 -1
      vertex 0 6.12323e-17 -1
    endloop
  endfacet
  facet normal 0 0 -1
    outer loop
      vertex 0 6.12323e-17 -1
      vertex -0.428946 0.90333 -1
      vertex -0.409069 0.912504 -1
    endloop
  endfacet
  facet normal 0 0 -1
    outer loop
      vertex -0.525063 0.851063 -1
      vertex -0.506306 0.862354 -1
      vertex 0 6.12323e-17 -1
    endloop
  endfacet
  facet normal 0 0 -1
    outer loop
      vertex -0.506306 0.862354 -1
      vertex -0.487307 0.87323 -1
      vertex 0 6.12323e-17 -1
    endloop
  endfacet
  facet normal 0 0 -1
    outer loop
      vertex 0 6.12323e-17 -1
      vertex -0.487307 0.87323 -1
      vertex -0.468075 0.883689 -1
    endloop
  endfacet
  facet normal 0 0 -1
    outer loop
      vertex -0.579787 0.814768 -1
      vertex -0.561812 0.827265 -1
      vertex 0 6.12323e-17 -1
    endloop
  endfacet
  facet normal 0 0 -1
    outer loop
      vertex -0.561812 0.827265 -1
      vertex -0.543568 0.839365 -1
      vertex 0 6.12323e-17 -1
    endloop
  endfacet
  facet normal 0 0 -1
    outer loop
      vertex 0 6.12323e-17 -1
      vertex -0.543568 0.839365 -1
      vertex -0.525063 0.851063 -1
    endloop
  endfacet
  facet normal 0 0 -1
    outer loop
      vertex -0.63201 0.77496 -1
      vertex -0.614894 0.788609 -1
      vertex 0 6.12323e-17 -1
    endloop
  endfacet
  facet normal 0 0 -1
    outer loop
      vertex -0.614894 0.788609 -1
      vertex -0.597484 0.801881 -1
      vertex 0 6.12323e-17 -1
    endloop
  endfacet
  facet normal 0 0 -1
    outer loop
      vertex 0 6.12323e-17 -1
      vertex -0.597484 0.801881 -1
      vertex -0.579787 0.814768 -1
    endloop
  endfacet
  facet normal 0 0 -1
    outer loop
      vertex -0.681509 0.73181 -1
      vertex -0.665326 0.746553 -1
      vertex 0 6.12323e-17 -1
    endloop
  endfacet
  facet normal 0 0 -1
    outer loop
      vertex -0.665326 0.746553 -1
      vertex -0.648824 0.760939 -1
      vertex 0 6.12323e-17 -1
    endloop
  endfacet
  facet normal 0 0 -1
    outer loop
      vertex 0 6.12323e-17 -1
      vertex -0.648824 0.760939 -1
      vertex -0.63201 0.77496 -1
    endloop
  endfacet
  facet normal 0 0 -1
    outer loop
      vertex -0.728069 0.685504 -1
      vertex -0.712888 0.701278 -1
      vertex 0 6.12323e-17 -1
    endloop
  endfacet
  facet normal 0 0 -1
    outer loop
      vertex -0.712888 0.701278 -1
      vertex -0.697366 0.716716 -1
      vertex 0 6.12323e-17 -1
    endloop
  endfacet
  facet normal 0 0 -1
    outer loop
      vertex 0 6.12323e-17 -1
      vertex -0.697366 0.716716 -1
      vertex -0.681509 0.73181 -1
    endloop
  endfacet
  facet normal 0 0 -1
    outer loop
      vertex -0.771489 0.636242 -1
      vertex -0.757376 0.652979 -1
      vertex 0 6.12323e-17 -1
    endloop
  endfacet
  facet normal 0 0 -1
    outer loop
      vertex -0.757376 0.652979 -1
      vertex -0.742901 0.669402 -1
      vertex 0 6.12323e-17 -1
    endloop
  endfacet
  facet normal 0 0 -1
    outer loop
      vertex 0 6.12323e-17 -1
      vertex -0.742901 0.669402 -1
      vertex -0.728069 0.685504 -1
    endloop
  endfacet
  facet normal 0 0 -1
    outer loop
      vertex -0.811583 0.584237 -1
      vertex -0.798599 0.601864 -1
      vertex 0 6.12323e-17 -1
    endloop
  endfacet
  facet normal 0 0 -1
    outer loop
      vertex -0.798599 0.601864 -1
      vertex -0.785232 0.619201 -1
      vertex 0 6.12323e-17 -1
    endloop
  endfacet
  facet normal 0 0 -1
    outer loop
      vertex 0 6.12323e-17 -1
      vertex -0.785232 0.619201 -1
      vertex -0.771489 0.636242 -1
    endloop
  endfacet
  facet normal 0 0 -1
    outer loop
      vertex -0.848177 0.529713 -1
      vertex -0.836378 0.548153 -1
      vertex 0 6.12323e-17 -1
    endloop
  endfacet
  facet normal 0 0 -1
    outer loop
      vertex -0.836378 0.548153 -1
      vertex -0.824178 0.566331 -1
      vertex 0 6.12323e-17 -1
    endloop
  endfacet
  facet normal 0 0 -1
    outer loop
      vertex 0 6.12323e-17 -1
      vertex -0.824178 0.566331 -1
      vertex -0.811583 0.584237 -1
    endloop
  endfacet
  facet normal 0 0 -1
    outer loop
      vertex -0.881114 0.472904 -1
      vertex -0.87055 0.492079 -1
      vertex 0 6.12323e-17 -1
    endloop
  endfacet
  facet normal 0 0 -1
    outer loop
      vertex -0.87055 0.492079 -1
      vertex -0.85957 0.511019 -1
      vertex 0 6.12323e-17 -1
    endloop
  endfacet
  facet normal 0 0 -1
    outer loop
      vertex 0 6.12323e-17 -1
      vertex -0.85957 0.511019 -1
      vertex -0.848177 0.529713 -1
    endloop
  endfacet
  facet normal 0 0 -1
    outer loop
      vertex -0.910251 0.414057 -1
      vertex -0.900969 0.433884 -1
      vertex 0 6.12323e-17 -1
    endloop
  endfacet
  facet normal 0 0 -1
    outer loop
      vertex -0.900969 0.433884 -1
      vertex -0.891255 0.453503 -1
      vertex 0 6.12323e-17 -1
    endloop
  endfacet
  facet normal 0 0 -1
    outer loop
      vertex 0 6.12323e-17 -1
      vertex -0.891255 0.453503 -1
      vertex -0.881114 0.472904 -1
    endloop
  endfacet
  facet normal 0 0 -1
    outer loop
      vertex -0.935463 0.353424 -1
      vertex -0.927502 0.373817 -1
      vertex 0 6.12323e-17 -1
    endloop
  endfacet
  facet normal 0 0 -1
    outer loop
      vertex -0.927502 0.373817 -1
      vertex -0.919097 0.394031 -1
      vertex 0 6.12323e-17 -1
    endloop
  endfacet
  facet normal 0 0 -1
    outer loop
      vertex 0 6.12323e-17 -1
      vertex -0.919097 0.394031 -1
      vertex -0.910251 0.414057 -1
    endloop
  endfacet
  facet normal 0 0 -1
    outer loop
      vertex -0.956642 0.291267 -1
      vertex -0.950037 0.312138 -1
      vertex 0 6.12323e-17 -1
    endloop
  endfacet
  facet normal 0 0 -1
    outer loop
      vertex -0.950037 0.312138 -1
      vertex -0.942976 0.332861 -1
      vertex 0 6.12323e-17 -1
    endloop
  endfacet
  facet normal 0 0 -1
    outer loop
      vertex 0 6.12323e-17 -1
      vertex -0.942976 0.332861 -1
      vertex -0.935463 0.353424 -1
    endloop
  endfacet
  facet normal 0 0 -1
    outer loop
      vertex -0.973695 0.227854 -1
      vertex -0.968474 0.249114 -1
      vertex 0 6.12323e-17 -1
    endloop
  endfacet
  facet normal 0 0 -1
    outer loop
      vertex -0.968474 0.249114 -1
      vertex -0.962789 0.270255 -1
      vertex 0 6.12323e-17 -1
    endloop
  endfacet
  facet normal 0 0 -1
    outer loop
      vertex 0 6.12323e-17 -1
      vertex -0.962789 0.270255 -1
      vertex -0.956642 0.291267 -1
    endloop
  endfacet
  facet normal 0 0 -1
    outer loop
      vertex -0.98655 0.163458 -1
      vertex -0.982736 0.185015 -1
      vertex 0 6.12323e-17 -1
    endloop
  endfacet
  facet normal 0 0 -1
    outer loop
      vertex -0.982736 0.185015 -1
      vertex -0.97845 0.206484 -1
      vertex 0 6.12323e-17 -1
    endloop
  endfacet
  facet normal 0 0 -1
    outer loop
      vertex 0 6.12323e-17 -1
      vertex -0.97845 0.206484 -1
      vertex -0.973695 0.227854 -1
    endloop
  endfacet
  facet normal 0 0 -1
    outer loop
      vertex -0.995151 0.0983576 -1
      vertex -0.99276 0.120119 -1
      vertex 0 6.12323e-17 -1
    endloop
  endfacet
  facet normal 0 0 -1
    outer loop
      vertex -0.99276 0.120119 -1
      vertex -0.989892 0.141822 -1
      vertex 0 6.12323e-17 -1
    endloop
  endfacet
  facet normal 0 0 -1
    outer loop
      vertex 0 6.12323e-17 -1
      vertex -0.989892 0.141822 -1
      vertex -0.98655 0.163458 -1
    endloop
  endfacet
  facet normal 0 0 -1
    outer loop
      vertex -0.999461 0.032833 -1
      vertex -0.998503 0.0547043 -1
      vertex 0 6.12323e-17 -1
    endloop
  endfacet
  facet normal 0 0 -1
    outer loop
      vertex -0.998503 0.0547043 -1
      vertex -0.997066 0.0765493 -1
      vertex 0 6.12323e-17 -1
    endloop
  endfacet
  facet normal 0 0 -1
    outer loop
      vertex 0 6.12323e-17 -1
      vertex -0.997066 0.0765493 -1
      vertex -0.995151 0.0983576 -1
    endloop
  endfacet
  facet normal 0 0 -1
    outer loop
      vertex -0.999461 -0.032833 -1
      vertex -0.99994 -0.0109461 -1
      vertex 0 6.12323e-17 -1
    endloop
  endfacet
  facet normal 0 0 -1
    outer loop
      vertex -0.99994 -0.0109461 -1
      vertex -0.99994 0.0109461 -1
      vertex 0 6.12323e-17 -1
    endloop
  endfacet
  facet normal 0 0 -1
    outer loop
      vertex 0 6.12323e-17 -1
      vertex -0.99994 0.0109461 -1
      vertex -0.999461 0.032833 -1
    endloop
  endfacet
  facet normal 0 0 -1
    outer loop
      vertex -0.995151 -0.0983576 -1
      vertex -0.997066 -0.0765493 -1
      vertex 0 6.12323e-17 -1
    endloop
  endfacet
  facet normal 0 0 -1
    outer loop
      vertex -0.997066 -0.0765493 -1
      vertex -0.998503 -0.0547043 -1
      vertex 0 6.12323e-17 -1
    endloop
  endfacet
  facet normal 0 0 -1
    outer loop
      vertex 0 6.12323e-17 -1
      vertex -0.998503 -0.0547043 -1
      vertex -0.999461 -0.032833 -1
    endloop
  endfacet
  facet normal 0 0 -1
    outer loop
      vertex -0.98655 -0.163458 -1
      vertex -0.989892 -0.141822 -1
      vertex 0 6.12323e-17 -1
    endloop
  endfacet
  facet normal 0 0 -1
    outer loop
      vertex -0.989892 -0.141822 -1
      vertex -0.99276 -0.120119 -1
      vertex 0 6.12323e-17 -1
    endloop
  endfacet
  facet normal 0 0 -1
    outer loop
      vertex 0 6.12323e-17 -1
      vertex -0.99276 -0.120119 -1
      vertex -0.995151 -0.0983576 -1
    endloop
  endfacet
  facet normal 0 0 -1
    outer loop
      vertex -0.973695 -0.227854 -1
      vertex -0.97845 -0.206484 -1
      vertex 0 6.12323e-17 -1
    endloop
  endfacet
  facet normal 0 0 -1
    outer loop
      vertex -0.97845 -0.206484 -1
      vertex -0.982736 -0.185015 -1
      vertex 0 6.12323e-17 -1
    endloop
  endfacet
  facet normal 0 0 -1
    outer loop
      vertex 0 6.12323e-17 -1
      vertex -0.982736 -0.185015 -1
      vertex -0.98655 -0.163458 -1
    endloop
  endfacet
  facet normal 0 0 -1
    outer loop
      vertex -0.956642 -0.291267 -1
      vertex -0.962789 -0.270255 -1
      vertex 0 6.12323e-17 -1
    endloop
  endfacet
  facet normal 0 0 -1
    outer loop
      vertex -0.962789 -0.270255 -1
      vertex -0.968474 -0.249114 -1
      vertex 0 6.12323e-17 -1
    endloop
  endfacet
  facet normal 0 0 -1
    outer loop
      vertex 0 6.12323e-17 -1
      vertex -0.968474 -0.249114 -1
      vertex -0.973695 -0.227854 -1
    endloop
  endfacet
  facet normal 0 0 -1
    outer loop
      vertex -0.935463 -0.353424 -1
      vertex -0.942976 -0.332861 -1
      vertex 0 6.12323e-17 -1
    endloop
  endfacet
  facet normal 0 0 -1
    outer loop
      vertex -0.942976 -0.332861 -1
      vertex -0.950037 -0.312138 -1
      vertex 0 6.12323e-17 -1
    endloop
  endfacet
  facet normal 0 0 -1
    outer loop
      vertex 0 6.12323e-17 -1
      vertex -0.950037 -0.312138 -1
      vertex -0.956642 -0.291267 -1
    endloop
  endfacet
  facet normal 0 0 -1
    outer loop
      vertex -0.910251 -0.414057 -1
      vertex -0.919097 -0.394031 -1
      vertex 0 6.12323e-17 -1
    endloop
  endfacet
  facet normal 0 0 -1
    outer loop
      vertex -0.919097 -0.394031 -1
      vertex -0.927502 -0.373817 -1
      vertex 0 6.12323e-17 -1
    endloop
  endfacet
  facet normal 0 0 -1
    outer loop
      vertex 0 6.12323e-17 -1
      vertex -0.927502 -0.373817 -1
      vertex -0.935463 -0.353424 -1
    endloop
  endfacet
  facet normal 0 0 -1
    outer loop
      vertex -0.881114 -0.472904 -1
      vertex -0.891255 -0.453503 -1
      vertex 0 6.12323e-17 -1
    endloop
  endfacet
  facet normal 0 0 -1
    outer loop
      vertex -0.891255 -0.453503 -1
      vertex -0.900969 -0.433884 -1
      vertex 0 6.12323e-17 -1
    endloop
  endfacet
  facet normal 0 0 -1
    outer loop
      vertex 0 6.12323e-17 -1
      vertex -0.900969 -0.433884 -1
      vertex -0.910251 -0.414057 -1
    endloop
  endfacet
  facet normal 0 0 -1
    outer loop
      vertex -0.848177 -0.529713 -1
      vertex -0.85957 -0.511019 -1
      vertex 0 6.12323e-17 -1
    endloop
  endfacet
  facet normal 0 0 -1
    outer loop
      vertex -0.85957 -0.511019 -1
      vertex -0.87055 -0.492079 -1
      vertex 0 6.12323e-17 -1
    endloop
  endfacet
  facet normal 0 0 -1
    outer loop
      vertex 0 6.12323e-17 -1
      vertex -0.87055 -0.492079 -1
      vertex -0.881114 -0.472904 -1
    endloop
  endfacet
  facet normal 0 0 -1
    outer loop
      vertex -0.811583 -0.584237 -1
      vertex -0.824178 -0.566331 -1
      vertex 0 6.12323e-17 -1
    endloop
  endfacet
  facet normal 0 0 -1
    outer loop
      vertex -0.824178 -0.566331 -1
      vertex -0.836378 -0.548153 -1
      vertex 0 6.12323e-17 -1
    endloop
  endfacet
  facet normal 0 0 -1
    outer loop
      vertex 0 6.12323e-17 -1
      vertex -0.836378 -0.548153 -1
      vertex -0.848177 -0.529713 -1
    endloop
  endfacet
  facet normal 0 0 -1
    outer loop
      vertex -0.771489 -0.636242 -1
      vertex -0.785232 -0.619201 -1
      vertex 0 6.12323e-17 -1
    endloop
  endfacet
  facet normal 0 0 -1
    outer loop
      vertex -0.785232 -0.619201 -1
      vertex -0.798599 -0.601864 -1
      vertex 0 6.12323e-17 -1
    endloop
  endfacet
  facet normal 0 0 -1
    outer loop
      vertex 0 6.12323e-17 -1
      vertex -0.798599 -0.601864 -1
      vertex -0.811583 -0.584237 -1
    endloop
  endfacet
  facet normal 0 0 -1
    outer loop
      vertex -0.728069 -0.685504 -1
      vertex -0.742901 -0.669402 -1
      vertex 0 6.12323e-17 -1
    endloop
  endfacet
  facet normal 0 0 -1
    outer loop
      vertex -0.742901 -0.669402 -1
      vertex -0.757376 -0.652979 -1
      vertex 0 6.12323e-17 -1
    endloop
  endfacet
  facet normal 0 0 -1
    outer loop
      vertex 0 6.12323e-17 -1
      vertex -0.757376 -0.652979 -1
      vertex -0.771489 -0.636242 -1
    endloop
  endfacet
  facet normal 0 0 -1
    outer loop
      vertex -0.681509 -0.73181 -1
      vertex -0.697366 -0.716716 -1
      vertex 0 6.12323e-17 -1
    endloop
  endfacet
  facet normal 0 0 -1
    outer loop
      vertex -0.697366 -0.716716 -1
      vertex -0.712888 -0.701278 -1
      vertex 0 6.12323e-17 -1
    endloop
  endfacet
  facet normal 0 0 -1
    outer loop
      vertex 0 6.12323e-17 -1
      vertex -0.712888 -0.701278 -1
      vertex -0.728069 -0.685504 -1
    endloop
  endfacet
  facet normal 0 0 -1
    outer loop
      vertex -0.63201 -0.77496 -1
      vertex -0.648824 -0.760939 -1
      vertex 0 6.12323e-17 -1
    endloop
  endfacet
  facet normal 0 0 -1
    outer loop
      vertex -0.648824 -0.760939 -1
      vertex -0.665326 -0.746553 -1
      vertex 0 6.12323e-17 -1
    endloop
  endfacet
  facet normal 0 0 -1
    outer loop
      vertex 0 6.12323e-17 -1
      vertex -0.665326 -0.746553 -1
      vertex -0.681509 -0.73181 -1
    endloop
  endfacet
  facet normal 0 0 -1
    outer loop
      vertex -0.579787 -0.814768 -1
      vertex -0.597484 -0.801881 -1
      vertex 0 6.12323e-17 -1
    endloop
  endfacet
  facet normal 0 0 -1
    outer loop
      vertex -0.597484 -0.801881 -1
      vertex -0.614894 -0.788609 -1
      vertex 0 6.12323e-17 -1
    endloop
  endfacet
  facet normal 0 0 -1
    outer loop
      vertex 0 6.12323e-17 -1
      vertex -0.614894 -0.788609 -1
      vertex -0.63201 -0.77496 -1
    endloop
  endfacet
  facet normal 0 0 -1
    outer loop
      vertex -0.525063 -0.851063 -1
      vertex -0.543568 -0.839365 -1
      vertex 0 6.12323e-17 -1
    endloop
  endfacet
  facet normal 0 0 -1
    outer loop
      vertex -0.543568 -0.839365 -1
      vertex -0.561812 -0.827265 -1
      vertex 0 6.12323e-17 -1
    endloop
  endfacet
  facet normal 0 0 -1
    outer loop
      vertex 0 6.12323e-17 -1
      vertex -0.561812 -0.827265 -1
      vertex -0.579787 -0.814768 -1
    endloop
  endfacet
  facet normal 0 0 -1
    outer loop
      vertex -0.468075 -0.883689 -1
      vertex -0.487307 -0.87323 -1
      vertex 0 6.12323e-17 -1
    endloop
  endfacet
  facet normal 0 0 -1
    outer loop
      vertex -0.487307 -0.87323 -1
      vertex -0.506306 -0.862354 -1
      vertex 0 6.12323e-17 -1
    endloop
  endfacet
  facet normal 0 0 -1
    outer loop
      vertex 0 6.12323e-17 -1
      vertex -0.506306 -0.862354 -1
      vertex -0.525063 -0.851063 -1
    endloop
  endfacet
  facet normal 0 0 -1
    outer loop
      vertex -0.409069 -0.912504 -1
      vertex -0.428946 -0.90333 -1
      vertex 0 6.12323e-17 -1
    endloop
  endfacet
  facet normal 0 0 -1
    outer loop
      vertex -0.428946 -0.90333 -1
      vertex -0.448618 -0.893724 -1
      vertex 0 6.12323e-17 -1
    endloop
  endfacet
  facet normal 0 0 -1
    outer loop
      vertex 0 6.12323e-17 -1
      vertex -0.448618 -0.893724 -1
      vertex -0.468075 -0.883689 -1
    endloop
  endfacet
  facet normal 0 0 -1
    outer loop
      vertex -0.348298 -0.937384 -1
      vertex -0.368735 -0.929534 -1
      vertex 0 6.12323e-17 -1
    endloop
  endfacet
  facet normal 0 0 -1
    outer loop
      vertex -0.368735 -0.929534 -1
      vertex -0.388995 -0.92124 -1
      vertex 0 6.12323e-17 -1
    endloop
  endfacet
  facet normal 0 0 -1
    outer loop
      vertex 0 6.12323e-17 -1
      vertex -0.388995 -0.92124 -1
      vertex -0.409069 -0.912504 -1
    endloop
  endfacet
  facet normal 0 0 -1
    outer loop
      vertex -0.286026 -0.958222 -1
      vertex -0.306934 -0.951731 -1
      vertex 0 6.12323e-17 -1
    endloop
  endfacet
  facet normal 0 0 -1
    outer loop
      vertex -0.306934 -0.951731 -1
      vertex -0.327695 -0.944784 -1
      vertex 0 6.12323e-17 -1
    endloop
  endfacet
  facet normal 0 0 -1
    outer loop
      vertex 0 6.12323e-17 -1
      vertex -0.327695 -0.944784 -1
      vertex -0.348298 -0.937384 -1
    endloop
  endfacet
  facet normal 0 0 -1
    outer loop
      vertex -0.222521 -0.974928 -1
      vertex -0.24381 -0.969823 -1
      vertex 0 6.12323e-17 -1
    endloop
  endfacet
  facet normal 0 0 -1
    outer loop
      vertex -0.24381 -0.969823 -1
      vertex -0.264982 -0.964253 -1
      vertex 0 6.12323e-17 -1
    endloop
  endfacet
  facet normal 0 0 -1
    outer loop
      vertex 0 6.12323e-17 -1
      vertex -0.264982 -0.964253 -1
      vertex -0.286026 -0.958222 -1
    endloop
  endfacet
  facet normal 0 0 -1
    outer loop
      vertex -0.158056 -0.98743 -1
      vertex -0.179634 -0.983734 -1
      vertex 0 6.12323e-17 -1
    endloop
  endfacet
  facet normal 0 0 -1
    outer loop
      vertex -0.179634 -0.983734 -1
      vertex -0.201126 -0.979565 -1
      vertex 0 6.12323e-17 -1
    endloop
  endfacet
  facet normal 0 0 -1
    outer loop
      vertex 0 6.12323e-17 -1
      vertex -0.201126 -0.979565 -1
      vertex -0.222521 -0.974928 -1
    endloop
  endfacet
  facet normal 0 0 -1
    outer loop
      vertex -0.0929095 -0.995675 -1
      vertex -0.114683 -0.993402 -1
      vertex 0 6.12323e-17 -1
    endloop
  endfacet
  facet normal 0 0 -1
    outer loop
      vertex -0.114683 -0.993402 -1
      vertex -0.136402 -0.990654 -1
      vertex 0 6.12323e-17 -1
    endloop
  endfacet
  facet normal 0 0 -1
    outer loop
      vertex 0 6.12323e-17 -1
      vertex -0.136402 -0.990654 -1
      vertex -0.158056 -0.98743 -1
    endloop
  endfacet
  facet normal 0 0 -1
    outer loop
      vertex -0.0273624 -0.999626 -1
      vertex -0.0492385 -0.998787 -1
      vertex 0 6.12323e-17 -1
    endloop
  endfacet
  facet normal 0 0 -1
    outer loop
      vertex -0.0492385 -0.998787 -1
      vertex -0.071091 -0.99747 -1
      vertex 0 6.12323e-17 -1
    endloop
  endfacet
  facet normal 0 0 -1
    outer loop
      vertex 0 6.12323e-17 -1
      vertex -0.071091 -0.99747 -1
      vertex -0.0929095 -0.995675 -1
    endloop
  endfacet
  facet normal 0 0 -1
    outer loop
      vertex 0.0383027 -0.999266 -1
      vertex 0.0164187 -0.999865 -1
      vertex 0 6.12323e-17 -1
    endloop
  endfacet
  facet normal 0 0 -1
    outer loop
      vertex 0.0164187 -0.999865 -1
      vertex -0.00547313 -0.999985 -1
      vertex 0 6.12323e-17 -1
    endloop
  endfacet
  facet normal 0 0 -1
    outer loop
      vertex 0 6.12323e-17 -1
      vertex -0.00547313 -0.999985 -1
      vertex -0.0273624 -0.999626 -1
    endloop
  endfacet
  facet normal 0 0 -1
    outer loop
      vertex 0.103803 -0.994598 -1
      vertex 0.0820052 -0.996632 -1
      vertex 0 6.12323e-17 -1
    endloop
  endfacet
  facet normal 0 0 -1
    outer loop
      vertex 0.0820052 -0.996632 -1
      vertex 0.0601684 -0.998188 -1
      vertex 0 6.12323e-17 -1
    endloop
  endfacet
  facet normal 0 0 -1
    outer loop
      vertex 0 6.12323e-17 -1
      vertex 0.0601684 -0.998188 -1
      vertex 0.0383027 -0.999266 -1
    endloop
  endfacet
  facet normal 0 0 -1
    outer loop
      vertex 0.168855 -0.985641 -1
      vertex 0.147238 -0.989101 -1
      vertex 0 6.12323e-17 -1
    endloop
  endfacet
  facet normal 0 0 -1
    outer loop
      vertex 0.147238 -0.989101 -1
      vertex 0.12555 -0.992087 -1
      vertex 0 6.12323e-17 -1
    endloop
  endfacet
  facet normal 0 0 -1
    outer loop
      vertex 0 6.12323e-17 -1
      vertex 0.12555 -0.992087 -1
      vertex 0.103803 -0.994598 -1
    endloop
  endfacet
  facet normal 0 0 -1
    outer loop
      vertex 0.233179 -0.972434 -1
      vertex 0.211836 -0.977305 -1
      vertex 0 6.12323e-17 -1
    endloop
  endfacet
  facet normal 0 0 -1
    outer loop
      vertex 0.211836 -0.977305 -1
      vertex 0.190391 -0.981708 -1
      vertex 0 6.12323e-17 -1
    endloop
  endfacet
  facet normal 0 0 -1
    outer loop
      vertex 0 6.12323e-17 -1
      vertex 0.190391 -0.981708 -1
      vertex 0.168855 -0.985641 -1
    endloop
  endfacet
  facet normal 0 0 -1
    outer loop
      vertex 0.296498 -0.955033 -1
      vertex 0.27552 -0.961295 -1
      vertex 0 6.12323e-17 -1
    endloop
  endfacet
  facet normal 0 0 -1
    outer loop
      vertex 0.27552 -0.961295 -1
      vertex 0.254411 -0.967096 -1
      vertex 0 6.12323e-17 -1
    endloop
  endfacet
  facet normal 0 0 -1
    outer loop
      vertex 0 6.12323e-17 -1
      vertex 0.254411 -0.967096 -1
      vertex 0.233179 -0.972434 -1
    endloop
  endfacet
  facet normal 0 0 -1
    outer loop
      vertex 0.358538 -0.933515 -1
      vertex 0.338017 -0.94114 -1
      vertex 0 6.12323e-17 -1
    endloop
  endfacet
  facet normal 0 0 -1
    outer loop
      vertex 0.338017 -0.94114 -1
      vertex 0.317333 -0.948314 -1
      vertex 0 6.12323e-17 -1
    endloop
  endfacet
  facet normal 0 0 -1
    outer loop
      vertex 0 6.12323e-17 -1
      vertex 0.317333 -0.948314 -1
      vertex 0.296498 -0.955033 -1
    endloop
  endfacet
  facet normal 0 0 -1
    outer loop
      vertex 0.419032 -0.907971 -1
      vertex 0.399056 -0.916927 -1
      vertex 0 6.12323e-17 -1
    endloop
  endfacet
  facet normal 0 0 -1
    outer loop
      vertex 0.399056 -0.916927 -1
      vertex 0.378888 -0.925443 -1
      vertex 0 6.12323e-17 -1
    endloop
  endfacet
  facet normal 0 0 -1
    outer loop
      vertex 0 6.12323e-17 -1
      vertex 0.378888 -0.925443 -1
      vertex 0.358538 -0.933515 -1
    endloop
  endfacet
  facet normal 0 0 -1
    outer loop
      vertex 0.47772 -0.878512 -1
      vertex 0.458374 -0.888759 -1
      vertex 0 6.12323e-17 -1
    endloop
  endfacet
  facet normal 0 0 -1
    outer loop
      vertex 0.458374 -0.888759 -1
      vertex 0.438808 -0.898581 -1
      vertex 0 6.12323e-17 -1
    endloop
  endfacet
  facet normal 0 0 -1
    outer loop
      vertex 0 6.12323e-17 -1
      vertex 0.438808 -0.898581 -1
      vertex 0.419032 -0.907971 -1
    endloop
  endfacet
  facet normal 0 0 -1
    outer loop
      vertex 0.534347 -0.845265 -1
      vertex 0.515716 -0.85676 -1
      vertex 0 6.12323e-17 -1
    endloop
  endfacet
  facet normal 0 0 -1
    outer loop
      vertex 0.515716 -0.85676 -1
      vertex 0.496837 -0.867844 -1
      vertex 0 6.12323e-17 -1
    endloop
  endfacet
  facet normal 0 0 -1
    outer loop
      vertex 0 6.12323e-17 -1
      vertex 0.496837 -0.867844 -1
      vertex 0.47772 -0.878512 -1
    endloop
  endfacet
  facet normal 0 0 -1
    outer loop
      vertex 0.58867 -0.808373 -1
      vertex 0.570833 -0.821066 -1
      vertex 0 6.12323e-17 -1
    endloop
  endfacet
  facet normal 0 0 -1
    outer loop
      vertex 0.570833 -0.821066 -1
      vertex 0.552723 -0.833365 -1
      vertex 0 6.12323e-17 -1
    endloop
  endfacet
  facet normal 0 0 -1
    outer loop
      vertex 0 6.12323e-17 -1
      vertex 0.552723 -0.833365 -1
      vertex 0.534347 -0.845265 -1
    endloop
  endfacet
  facet normal 0 0 -1
    outer loop
      vertex 0.640455 -0.767995 -1
      vertex 0.62349 -0.781832 -1
      vertex 0 6.12323e-17 -1
    endloop
  endfacet
  facet normal 0 0 -1
    outer loop
      vertex 0.62349 -0.781832 -1
      vertex 0.606225 -0.795293 -1
      vertex 0 6.12323e-17 -1
    endloop
  endfacet
  facet normal 0 0 -1
    outer loop
      vertex 0 6.12323e-17 -1
      vertex 0.606225 -0.795293 -1
      vertex 0.58867 -0.808373 -1
    endloop
  endfacet
  facet normal 0 0 -1
    outer loop
      vertex 0.689479 -0.724306 -1
      vertex 0.673458 -0.739226 -1
      vertex 0 6.12323e-17 -1
    endloop
  endfacet
  facet normal 0 0 -1
    outer loop
      vertex 0.673458 -0.739226 -1
      vertex 0.657114 -0.753791 -1
      vertex 0 6.12323e-17 -1
    endloop
  endfacet
  facet normal 0 0 -1
    outer loop
      vertex 0 6.12323e-17 -1
      vertex 0.657114 -0.753791 -1
      vertex 0.640455 -0.767995 -1
    endloop
  endfacet
  facet normal 0 0 -1
    outer loop
      vertex 0.735529 -0.677493 -1
      vertex 0.720522 -0.693433 -1
      vertex 0 6.12323e-17 -1
    endloop
  endfacet
  facet normal 0 0 -1
    outer loop
      vertex 0.720522 -0.693433 -1
      vertex 0.705169 -0.709039 -1
      vertex 0 6.12323e-17 -1
    endloop
  endfacet
  facet normal 0 0 -1
    outer loop
      vertex 0 6.12323e-17 -1
      vertex 0.705169 -0.709039 -1
      vertex 0.689479 -0.724306 -1
    endloop
  endfacet
  facet normal 0 0 -1
    outer loop
      vertex 0.778407 -0.62776 -1
      vertex 0.764479 -0.644649 -1
      vertex 0 6.12323e-17 -1
    endloop
  endfacet
  facet normal 0 0 -1
    outer loop
      vertex 0.764479 -0.644649 -1
      vertex 0.750183 -0.66123 -1
      vertex 0 6.12323e-17 -1
    endloop
  endfacet
  facet normal 0 0 -1
    outer loop
      vertex 0 6.12323e-17 -1
      vertex 0.750183 -0.66123 -1
      vertex 0.735529 -0.677493 -1
    endloop
  endfacet
  facet normal 0 0 -1
    outer loop
      vertex 0.817929 -0.575319 -1
      vertex 0.805139 -0.593086 -1
      vertex 0 6.12323e-17 -1
    endloop
  endfacet
  facet normal 0 0 -1
    outer loop
      vertex 0.805139 -0.593086 -1
      vertex 0.791963 -0.610569 -1
      vertex 0 6.12323e-17 -1
    endloop
  endfacet
  facet normal 0 0 -1
    outer loop
      vertex 0 6.12323e-17 -1
      vertex 0.791963 -0.610569 -1
      vertex 0.778407 -0.62776 -1
    endloop
  endfacet
  facet normal 0 0 -1
    outer loop
      vertex 0.853924 -0.520397 -1
      vertex 0.842328 -0.538965 -1
      vertex 0 6.12323e-17 -1
    endloop
  endfacet
  facet normal 0 0 -1
    outer loop
      vertex 0.842328 -0.538965 -1
      vertex 0.830328 -0.557276 -1
      vertex 0 6.12323e-17 -1
    endloop
  endfacet
  facet normal 0 0 -1
    outer loop
      vertex 0 6.12323e-17 -1
      vertex 0.830328 -0.557276 -1
      vertex 0.817929 -0.575319 -1
    endloop
  endfacet
  facet normal 0 0 -1
    outer loop
      vertex 0.886237 -0.463231 -1
      vertex 0.875884 -0.482521 -1
      vertex 0 6.12323e-17 -1
    endloop
  endfacet
  facet normal 0 0 -1
    outer loop
      vertex 0.875884 -0.482521 -1
      vertex 0.865112 -0.501579 -1
      vertex 0 6.12323e-17 -1
    endloop
  endfacet
  facet normal 0 0 -1
    outer loop
      vertex 0 6.12323e-17 -1
      vertex 0.865112 -0.501579 -1
      vertex 0.853924 -0.520397 -1
    endloop
  endfacet
  facet normal 0 0 -1
    outer loop
      vertex 0.914729 -0.404068 -1
      vertex 0.905664 -0.423996 -1
      vertex 0 6.12323e-17 -1
    endloop
  endfacet
  facet normal 0 0 -1
    outer loop
      vertex 0.905664 -0.423996 -1
      vertex 0.896166 -0.44372 -1
      vertex 0 6.12323e-17 -1
    endloop
  endfacet
  facet normal 0 0 -1
    outer loop
      vertex 0 6.12323e-17 -1
      vertex 0.896166 -0.44372 -1
      vertex 0.886237 -0.463231 -1
    endloop
  endfacet
  facet normal 0 0 -1
    outer loop
      vertex 0.939276 -0.343163 -1
      vertex 0.931539 -0.363642 -1
      vertex 0 6.12323e-17 -1
    endloop
  endfacet
  facet normal 0 0 -1
    outer loop
      vertex 0.931539 -0.363642 -1
      vertex 0.923355 -0.383947 -1
      vertex 0 6.12323e-17 -1
    endloop
  endfacet
  facet normal 0 0 -1
    outer loop
      vertex 0 6.12323e-17 -1
      vertex 0.923355 -0.383947 -1
      vertex 0.914729 -0.404068 -1
    endloop
  endfacet
  facet normal 0 0 -1
    outer loop
      vertex 0.959773 -0.280778 -1
      vertex 0.953396 -0.301721 -1
      vertex 0 6.12323e-17 -1
    endloop
  endfacet
  facet normal 0 0 -1
    outer loop
      vertex 0.953396 -0.301721 -1
      vertex 0.946563 -0.322519 -1
      vertex 0 6.12323e-17 -1
    endloop
  endfacet
  facet normal 0 0 -1
    outer loop
      vertex 0 6.12323e-17 -1
      vertex 0.946563 -0.322519 -1
      vertex 0.939276 -0.343163 -1
    endloop
  endfacet
  facet normal 0 0 -1
    outer loop
      vertex 0.976131 -0.217182 -1
      vertex 0.971143 -0.238498 -1
      vertex 0 6.12323e-17 -1
    endloop
  endfacet
  facet normal 0 0 -1
    outer loop
      vertex 0.971143 -0.238498 -1
      vertex 0.965689 -0.2597 -1
      vertex 0 6.12323e-17 -1
    endloop
  endfacet
  facet normal 0 0 -1
    outer loop
      vertex 0 6.12323e-17 -1
      vertex 0.965689 -0.2597 -1
      vertex 0.959773 -0.280778 -1
    endloop
  endfacet
  facet normal 0 0 -1
    outer loop
      vertex 0.98828 -0.152649 -1
      vertex 0.984702 -0.174247 -1
      vertex 0 6.12323e-17 -1
    endloop
  endfacet
  facet normal 0 0 -1
    outer loop
      vertex 0.984702 -0.174247 -1
      vertex 0.980652 -0.195761 -1
      vertex 0 6.12323e-17 -1
    endloop
  endfacet
  facet normal 0 0 -1
    outer loop
      vertex 0 6.12323e-17 -1
      vertex 0.980652 -0.195761 -1
      vertex 0.976131 -0.217182 -1
    endloop
  endfacet
  facet normal 0 0 -1
    outer loop
      vertex 0.996168 -0.0874586 -1
      vertex 0.994015 -0.109245 -1
      vertex 0 6.12323e-17 -1
    endloop
  endfacet
  facet normal 0 0 -1
    outer loop
      vertex 0.994015 -0.109245 -1
      vertex 0.991385 -0.130978 -1
      vertex 0 6.12323e-17 -1
    endloop
  endfacet
  facet normal 0 0 -1
    outer loop
      vertex 0 6.12323e-17 -1
      vertex 0.991385 -0.130978 -1
      vertex 0.98828 -0.152649 -1
    endloop
  endfacet
  facet normal 0 0 -1
    outer loop
      vertex 0.99976 -0.0218909 -1
      vertex 0.999042 -0.0437713 -1
      vertex 0 6.12323e-17 -1
    endloop
  endfacet
  facet normal 0 0 -1
    outer loop
      vertex 0.999042 -0.0437713 -1
      vertex 0.997844 -0.0656307 -1
      vertex 0 6.12323e-17 -1
    endloop
  endfacet
  facet normal 0 0 -1
    outer loop
      vertex 0 6.12323e-17 -1
      vertex 0.997844 -0.0656307 -1
      vertex 0.996168 -0.0874586 -1
    endloop
  endfacet
endsolid Onshape-s3
