solid Visualization Toolkit generated SLA File
 facet normal -0 0 -1
  outer loop
   vertex 0.125 0.25 1
   vertex 0.15625 0.25 1
   vertex 0.125 0.21875 1
  endloop
 endfacet
 facet normal 0 0 -1
  outer loop
   vertex 0.15625 0.21875 1
   vertex 0.125 0.21875 1
   vertex 0.15625 0.25 1
  endloop
 endfacet
 facet normal -0 0 -1
  outer loop
   vertex 0.1875 0.1875 1
   vertex 0.15625 0.1875 1
   vertex 0.1875 0.21875 1
  endloop
 endfacet
 facet normal 0 0 -1
  outer loop
   vertex 0.15625 0.21875 1
   vertex 0.1875 0.21875 1
   vertex 0.15625 0.1875 1
  endloop
 endfacet
 facet normal -0 0 -1
  outer loop
   vertex 0.25 0.125 1
   vertex 0.28125 0.125 1
   vertex 0.25 0.09375 1
  endloop
 endfacet
 facet normal 0 0 -1
  outer loop
   vertex 0.28125 0.09375 1
   vertex 0.25 0.09375 1
   vertex 0.28125 0.125 1
  endloop
 endfacet
 facet normal 0 0 -1
  outer loop
   vertex -3.33067e-16 0.03125 1
   vertex 0.03125 0.03125 1
   vertex -2.22045e-16 0 1
  endloop
 endfacet
 facet normal 0 0 -1
  outer loop
   vertex 0.03125 1.11022e-16 1
   vertex -2.22045e-16 0 1
   vertex 0.03125 0.03125 1
  endloop
 endfacet
 facet normal -0 0 -1
  outer loop
   vertex -0.25 1.95399e-14 1
   vertex -0.28125 3.15914e-13 1
   vertex -0.25 0.03125 1
  endloop
 endfacet
 facet normal 0 0 -1
  outer loop
   vertex -0.28125 0.03125 1
   vertex -0.25 0.03125 1
   vertex -0.28125 3.15914e-13 1
  endloop
 endfacet
 facet normal -0 0 -1
  outer loop
   vertex -0.375 6.62902e-12 1
   vertex -0.40625 1.10418e-11 1
   vertex -0.375 0.03125 1
  endloop
 endfacet
 facet normal 0 0 -1
  outer loop
   vertex -0.40625 0.03125 1
   vertex -0.375 0.03125 1
   vertex -0.40625 1.10418e-11 1
  endloop
 endfacet
 facet normal 0 0 -1
  outer loop
   vertex -0.34375 3.01537e-12 1
   vertex -0.375 6.62902e-12 1
   vertex -0.34375 0.03125 1
  endloop
 endfacet
 facet normal 0 0 -1
  outer loop
   vertex -0.375 0.03125 1
   vertex -0.34375 0.03125 1
   vertex -0.375 6.62902e-12 1
  endloop
 endfacet
 facet normal -0 0 -1
  outer loop
   vertex -0.25 0.125 1
   vertex -0.25 0.09375 1
   vertex -0.28125 0.125 1
  endloop
 endfacet
 facet normal 0 0 -1
  outer loop
   vertex -0.28125 0.09375 1
   vertex -0.28125 0.125 1
   vertex -0.25 0.09375 1
  endloop
 endfacet
 facet normal -0 0 -1
  outer loop
   vertex 0.125 0.5 1
   vertex 0.125 0.53125 1
   vertex 0.15625 0.5 1
  endloop
 endfacet
 facet normal 0 0 -1
  outer loop
   vertex 0.15625 0.53125 1
   vertex 0.15625 0.5 1
   vertex 0.125 0.53125 1
  endloop
 endfacet
 facet normal -0 0 -1
  outer loop
   vertex 0.0625 0.0625 1
   vertex 0.0625 0.03125 1
   vertex 0.03125 0.0625 1
  endloop
 endfacet
 facet normal 0 0 -1
  outer loop
   vertex 0.03125 0.03125 1
   vertex 0.03125 0.0625 1
   vertex 0.0625 0.03125 1
  endloop
 endfacet
 facet normal -0 0 -1
  outer loop
   vertex -0.3125 0.0625 1
   vertex -0.28125 0.0625 1
   vertex -0.3125 0.03125 1
  endloop
 endfacet
 facet normal 0 0 -1
  outer loop
   vertex -0.28125 0.03125 1
   vertex -0.3125 0.03125 1
   vertex -0.28125 0.0625 1
  endloop
 endfacet
 facet normal -0 0 -1
  outer loop
   vertex 0.1875 0.25 1
   vertex 0.21875 0.25 1
   vertex 0.1875 0.21875 1
  endloop
 endfacet
 facet normal 0 0 -1
  outer loop
   vertex 0.21875 0.21875 1
   vertex 0.1875 0.21875 1
   vertex 0.21875 0.25 1
  endloop
 endfacet
 facet normal -0 0 -1
  outer loop
   vertex -0.375 0.0625 1
   vertex -0.375 0.03125 1
   vertex -0.40625 0.0625 1
  endloop
 endfacet
 facet normal 0 0 -1
  outer loop
   vertex -0.40625 0.03125 1
   vertex -0.40625 0.0625 1
   vertex -0.375 0.03125 1
  endloop
 endfacet
 facet normal -0 0 -1
  outer loop
   vertex -0.4375 0.0625 1
   vertex -0.46875 0.0625 1
   vertex -0.4375 0.09375 1
  endloop
 endfacet
 facet normal 0 0 -1
  outer loop
   vertex -0.46875 0.09375 1
   vertex -0.4375 0.09375 1
   vertex -0.46875 0.0625 1
  endloop
 endfacet
 facet normal -0 0 -1
  outer loop
   vertex -5.55112e-16 0.0625 1
   vertex -4.996e-16 0.09375 1
   vertex 0.03125 0.0625 1
  endloop
 endfacet
 facet normal 0 0 -1
  outer loop
   vertex 0.03125 0.09375 1
   vertex 0.03125 0.0625 1
   vertex -4.996e-16 0.09375 1
  endloop
 endfacet
 facet normal -0 0 -1
  outer loop
   vertex 0.0625 0.125 1
   vertex 0.09375 0.125 1
   vertex 0.0625 0.09375 1
  endloop
 endfacet
 facet normal 0 0 -1
  outer loop
   vertex 0.09375 0.09375 1
   vertex 0.0625 0.09375 1
   vertex 0.09375 0.125 1
  endloop
 endfacet
 facet normal -0 0 -1
  outer loop
   vertex 0.0625 0.0625 1
   vertex 0.0625 0.09375 1
   vertex 0.09375 0.0625 1
  endloop
 endfacet
 facet normal 0 0 -1
  outer loop
   vertex 0.09375 0.09375 1
   vertex 0.09375 0.0625 1
   vertex 0.0625 0.09375 1
  endloop
 endfacet
 facet normal -0 0 -1
  outer loop
   vertex -0.3125 1.09557e-12 1
   vertex -0.34375 3.01537e-12 1
   vertex -0.3125 0.03125 1
  endloop
 endfacet
 facet normal 0 0 -1
  outer loop
   vertex -0.34375 0.03125 1
   vertex -0.3125 0.03125 1
   vertex -0.34375 3.01537e-12 1
  endloop
 endfacet
 facet normal -0 0 -1
  outer loop
   vertex -0.375 0.0625 1
   vertex -0.34375 0.0625 1
   vertex -0.375 0.03125 1
  endloop
 endfacet
 facet normal 0 0 -1
  outer loop
   vertex -0.34375 0.03125 1
   vertex -0.375 0.03125 1
   vertex -0.34375 0.0625 1
  endloop
 endfacet
 facet normal -0 0 -1
  outer loop
   vertex -0.3125 0.0625 1
   vertex -0.3125 0.03125 1
   vertex -0.34375 0.0625 1
  endloop
 endfacet
 facet normal 0 0 -1
  outer loop
   vertex -0.34375 0.03125 1
   vertex -0.34375 0.0625 1
   vertex -0.3125 0.03125 1
  endloop
 endfacet
 facet normal -0 0 -1
  outer loop
   vertex -0.25 0.0625 1
   vertex -0.28125 0.0625 1
   vertex -0.25 0.09375 1
  endloop
 endfacet
 facet normal 0 0 -1
  outer loop
   vertex -0.28125 0.09375 1
   vertex -0.25 0.09375 1
   vertex -0.28125 0.0625 1
  endloop
 endfacet
 facet normal -0 0 -1
  outer loop
   vertex -0.3125 0.0625 1
   vertex -0.3125 0.09375 1
   vertex -0.28125 0.0625 1
  endloop
 endfacet
 facet normal 0 0 -1
  outer loop
   vertex -0.28125 0.09375 1
   vertex -0.28125 0.0625 1
   vertex -0.3125 0.09375 1
  endloop
 endfacet
 facet normal -0 0 -1
  outer loop
   vertex -0.375 0.0625 1
   vertex -0.375 0.09375 1
   vertex -0.34375 0.0625 1
  endloop
 endfacet
 facet normal 0 0 -1
  outer loop
   vertex -0.34375 0.09375 1
   vertex -0.34375 0.0625 1
   vertex -0.375 0.09375 1
  endloop
 endfacet
 facet normal -0 0 -1
  outer loop
   vertex -0.4375 0.125 1
   vertex -0.4375 0.15625 1
   vertex -0.40625 0.125 1
  endloop
 endfacet
 facet normal 0 0 -1
  outer loop
   vertex -0.40625 0.15625 1
   vertex -0.40625 0.125 1
   vertex -0.4375 0.15625 1
  endloop
 endfacet
 facet normal -0 0 -1
  outer loop
   vertex -0.375 0.1875 1
   vertex -0.375 0.21875 1
   vertex -0.34375 0.1875 1
  endloop
 endfacet
 facet normal 0 0 -1
  outer loop
   vertex -0.34375 0.21875 1
   vertex -0.34375 0.1875 1
   vertex -0.375 0.21875 1
  endloop
 endfacet
 facet normal -0 0 -1
  outer loop
   vertex 0.1875 0.0625 1
   vertex 0.1875 0.03125 1
   vertex 0.15625 0.0625 1
  endloop
 endfacet
 facet normal 0 0 -1
  outer loop
   vertex 0.15625 0.03125 1
   vertex 0.15625 0.0625 1
   vertex 0.1875 0.03125 1
  endloop
 endfacet
 facet normal -0 0 -1
  outer loop
   vertex 0.125 0.0625 1
   vertex 0.125 0.09375 1
   vertex 0.15625 0.0625 1
  endloop
 endfacet
 facet normal 0 0 -1
  outer loop
   vertex 0.15625 0.09375 1
   vertex 0.15625 0.0625 1
   vertex 0.125 0.09375 1
  endloop
 endfacet
 facet normal -0 0 -1
  outer loop
   vertex 0.1875 0.0625 1
   vertex 0.15625 0.0625 1
   vertex 0.1875 0.09375 1
  endloop
 endfacet
 facet normal 0 0 -1
  outer loop
   vertex 0.15625 0.09375 1
   vertex 0.1875 0.09375 1
   vertex 0.15625 0.0625 1
  endloop
 endfacet
 facet normal -0 0 -1
  outer loop
   vertex 0.0625 0.25 1
   vertex 0.09375 0.25 1
   vertex 0.0625 0.21875 1
  endloop
 endfacet
 facet normal 0 0 -1
  outer loop
   vertex 0.09375 0.21875 1
   vertex 0.0625 0.21875 1
   vertex 0.09375 0.25 1
  endloop
 endfacet
 facet normal -0 0 -1
  outer loop
   vertex 0.0625 0.1875 1
   vertex 0.0625 0.21875 1
   vertex 0.09375 0.1875 1
  endloop
 endfacet
 facet normal 0 0 -1
  outer loop
   vertex 0.09375 0.21875 1
   vertex 0.09375 0.1875 1
   vertex 0.0625 0.21875 1
  endloop
 endfacet
 facet normal -0 0 -1
  outer loop
   vertex 0.0625 0.125 1
   vertex 0.0625 0.15625 1
   vertex 0.09375 0.125 1
  endloop
 endfacet
 facet normal 0 0 -1
  outer loop
   vertex 0.09375 0.15625 1
   vertex 0.09375 0.125 1
   vertex 0.0625 0.15625 1
  endloop
 endfacet
 facet normal -0 0 -1
  outer loop
   vertex 0.125 0.1875 1
   vertex 0.125 0.15625 1
   vertex 0.09375 0.1875 1
  endloop
 endfacet
 facet normal 0 0 -1
  outer loop
   vertex 0.09375 0.15625 1
   vertex 0.09375 0.1875 1
   vertex 0.125 0.15625 1
  endloop
 endfacet
 facet normal -0 0 -1
  outer loop
   vertex 0.25 0.1875 1
   vertex 0.25 0.15625 1
   vertex 0.21875 0.1875 1
  endloop
 endfacet
 facet normal 0 0 -1
  outer loop
   vertex 0.21875 0.15625 1
   vertex 0.21875 0.1875 1
   vertex 0.25 0.15625 1
  endloop
 endfacet
 facet normal -0 0 -1
  outer loop
   vertex 0.1875 0.25 1
   vertex 0.1875 0.21875 1
   vertex 0.15625 0.25 1
  endloop
 endfacet
 facet normal 0 0 -1
  outer loop
   vertex 0.15625 0.21875 1
   vertex 0.15625 0.25 1
   vertex 0.1875 0.21875 1
  endloop
 endfacet
 facet normal -0 0 -1
  outer loop
   vertex 0.1875 0.125 1
   vertex 0.15625 0.125 1
   vertex 0.1875 0.15625 1
  endloop
 endfacet
 facet normal 0 0 -1
  outer loop
   vertex 0.15625 0.15625 1
   vertex 0.1875 0.15625 1
   vertex 0.15625 0.125 1
  endloop
 endfacet
 facet normal -0 0 -1
  outer loop
   vertex -2.22045e-16 0 1
   vertex -5.55112e-16 -0.03125 1
   vertex -0.03125 -2.22045e-16 1
  endloop
 endfacet
 facet normal 0 0 -1
  outer loop
   vertex -0.03125 -0.03125 1
   vertex -0.03125 -2.22045e-16 1
   vertex -5.55112e-16 -0.03125 1
  endloop
 endfacet
 facet normal 0 0 -1
  outer loop
   vertex -5.55112e-16 -0.03125 1
   vertex -2.22045e-16 0 1
   vertex 0.03125 -0.03125 1
  endloop
 endfacet
 facet normal 0 0 -1
  outer loop
   vertex 0.03125 1.11022e-16 1
   vertex 0.03125 -0.03125 1
   vertex -2.22045e-16 0 1
  endloop
 endfacet
 facet normal 0 0 -1
  outer loop
   vertex -4.996e-16 0.46875 1
   vertex -4.12864e-16 0.5 1
   vertex 0.03125 0.46875 1
  endloop
 endfacet
 facet normal 0 0 -1
  outer loop
   vertex 0.03125 0.5 1
   vertex 0.03125 0.46875 1
   vertex -4.12864e-16 0.5 1
  endloop
 endfacet
 facet normal -0 0 -1
  outer loop
   vertex -4.12864e-16 0.5 1
   vertex -0.03125 0.5 1
   vertex -5.55979e-15 0.53125 1
  endloop
 endfacet
 facet normal 0 0 -1
  outer loop
   vertex -0.03125 0.53125 1
   vertex -5.55979e-15 0.53125 1
   vertex -0.03125 0.5 1
  endloop
 endfacet
 facet normal -0 0 -1
  outer loop
   vertex -0.25 1.95399e-14 1
   vertex -0.21875 -3.77476e-14 1
   vertex -0.25 -0.03125 1
  endloop
 endfacet
 facet normal 0 0 -1
  outer loop
   vertex -0.21875 -0.03125 1
   vertex -0.25 -0.03125 1
   vertex -0.21875 -3.77476e-14 1
  endloop
 endfacet
 facet normal -0 0 -1
  outer loop
   vertex -0.25 0.5 1
   vertex -0.25 0.46875 1
   vertex -0.28125 0.5 1
  endloop
 endfacet
 facet normal 0 0 -1
  outer loop
   vertex -0.28125 0.46875 1
   vertex -0.28125 0.5 1
   vertex -0.25 0.46875 1
  endloop
 endfacet
 facet normal -0 0 -1
  outer loop
   vertex -0.25 0.25 1
   vertex -0.25 0.28125 1
   vertex -0.21875 0.25 1
  endloop
 endfacet
 facet normal 0 0 -1
  outer loop
   vertex -0.21875 0.28125 1
   vertex -0.21875 0.25 1
   vertex -0.25 0.28125 1
  endloop
 endfacet
 facet normal 0 0 -1
  outer loop
   vertex 0.28125 -2.33147e-15 1
   vertex 0.25 -9.99201e-16 1
   vertex 0.28125 0.03125 1
  endloop
 endfacet
 facet normal 0 0 -1
  outer loop
   vertex 0.25 0.03125 1
   vertex 0.28125 0.03125 1
   vertex 0.25 -9.99201e-16 1
  endloop
 endfacet
 facet normal -0 0 -1
  outer loop
   vertex 0.25 0.25 1
   vertex 0.28125 0.25 1
   vertex 0.25 0.21875 1
  endloop
 endfacet
 facet normal 0 0 -1
  outer loop
   vertex 0.28125 0.21875 1
   vertex 0.25 0.21875 1
   vertex 0.28125 0.25 1
  endloop
 endfacet
 facet normal -0 0 -1
  outer loop
   vertex 0.25 0.5 1
   vertex 0.25 0.46875 1
   vertex 0.21875 0.5 1
  endloop
 endfacet
 facet normal 0 0 -1
  outer loop
   vertex 0.21875 0.46875 1
   vertex 0.21875 0.5 1
   vertex 0.25 0.46875 1
  endloop
 endfacet
 facet normal -0 0 -1
  outer loop
   vertex -0.125 0.5 1
   vertex -0.09375 0.5 1
   vertex -0.125 0.46875 1
  endloop
 endfacet
 facet normal 0 0 -1
  outer loop
   vertex -0.09375 0.46875 1
   vertex -0.125 0.46875 1
   vertex -0.09375 0.5 1
  endloop
 endfacet
 facet normal -0 0 -1
  outer loop
   vertex -0.125 0.5 1
   vertex -0.125 0.53125 1
   vertex -0.09375 0.5 1
  endloop
 endfacet
 facet normal 0 0 -1
  outer loop
   vertex -0.09375 0.53125 1
   vertex -0.09375 0.5 1
   vertex -0.125 0.53125 1
  endloop
 endfacet
 facet normal -0 0 -1
  outer loop
   vertex -0.375 6.62902e-12 1
   vertex -0.34375 3.01537e-12 1
   vertex -0.375 -0.03125 1
  endloop
 endfacet
 facet normal 0 0 -1
  outer loop
   vertex -0.34375 -0.03125 1
   vertex -0.375 -0.03125 1
   vertex -0.34375 3.01537e-12 1
  endloop
 endfacet
 facet normal -0 0 -1
  outer loop
   vertex -0.125 -8.54872e-15 1
   vertex -0.125 -0.03125 1
   vertex -0.15625 -1.84297e-14 1
  endloop
 endfacet
 facet normal 0 0 -1
  outer loop
   vertex -0.15625 -0.03125 1
   vertex -0.15625 -1.84297e-14 1
   vertex -0.125 -0.03125 1
  endloop
 endfacet
 facet normal -0 0 -1
  outer loop
   vertex -0.125 0.25 1
   vertex -0.09375 0.25 1
   vertex -0.125 0.21875 1
  endloop
 endfacet
 facet normal 0 0 -1
  outer loop
   vertex -0.09375 0.21875 1
   vertex -0.125 0.21875 1
   vertex -0.09375 0.25 1
  endloop
 endfacet
 facet normal -0 0 -1
  outer loop
   vertex -0.125 0.125 1
   vertex -0.125 0.15625 1
   vertex -0.09375 0.125 1
  endloop
 endfacet
 facet normal 0 0 -1
  outer loop
   vertex -0.09375 0.15625 1
   vertex -0.09375 0.125 1
   vertex -0.125 0.15625 1
  endloop
 endfacet
 facet normal -0 0 -1
  outer loop
   vertex -0.125 0.125 1
   vertex -0.15625 0.125 1
   vertex -0.125 0.15625 1
  endloop
 endfacet
 facet normal 0 0 -1
  outer loop
   vertex -0.15625 0.15625 1
   vertex -0.125 0.15625 1
   vertex -0.15625 0.125 1
  endloop
 endfacet
 facet normal -0 0 -1
  outer loop
   vertex -0.125 0.5 1
   vertex -0.125 0.46875 1
   vertex -0.15625 0.5 1
  endloop
 endfacet
 facet normal 0 0 -1
  outer loop
   vertex -0.15625 0.46875 1
   vertex -0.15625 0.5 1
   vertex -0.125 0.46875 1
  endloop
 endfacet
 facet normal -0 0 -1
  outer loop
   vertex -0.125 0.375 1
   vertex -0.125 0.34375 1
   vertex -0.15625 0.375 1
  endloop
 endfacet
 facet normal 0 0 -1
  outer loop
   vertex -0.15625 0.34375 1
   vertex -0.15625 0.375 1
   vertex -0.125 0.34375 1
  endloop
 endfacet
 facet normal -0 0 -1
  outer loop
   vertex 0.25 0.125 1
   vertex 0.25 0.15625 1
   vertex 0.28125 0.125 1
  endloop
 endfacet
 facet normal 0 0 -1
  outer loop
   vertex 0.28125 0.15625 1
   vertex 0.28125 0.125 1
   vertex 0.25 0.15625 1
  endloop
 endfacet
 facet normal -0 0 -1
  outer loop
   vertex 0.125 0.5 1
   vertex 0.15625 0.5 1
   vertex 0.125 0.46875 1
  endloop
 endfacet
 facet normal 0 0 -1
  outer loop
   vertex 0.15625 0.46875 1
   vertex 0.125 0.46875 1
   vertex 0.15625 0.5 1
  endloop
 endfacet
 facet normal -0 0 -1
  outer loop
   vertex 0.25 0.375 1
   vertex 0.25 0.34375 1
   vertex 0.21875 0.375 1
  endloop
 endfacet
 facet normal 0 0 -1
  outer loop
   vertex 0.21875 0.34375 1
   vertex 0.21875 0.375 1
   vertex 0.25 0.34375 1
  endloop
 endfacet
 facet normal -0 0 -1
  outer loop
   vertex 0.25 0.375 1
   vertex 0.28125 0.375 1
   vertex 0.25 0.34375 1
  endloop
 endfacet
 facet normal 0 0 -1
  outer loop
   vertex 0.28125 0.34375 1
   vertex 0.25 0.34375 1
   vertex 0.28125 0.375 1
  endloop
 endfacet
 facet normal 0 0 -1
  outer loop
   vertex -0.03125 -2.22045e-16 1
   vertex -0.03125 -0.03125 1
   vertex -0.0625 -8.88178e-16 1
  endloop
 endfacet
 facet normal 0 0 -1
  outer loop
   vertex -0.0625 -0.03125 1
   vertex -0.0625 -8.88178e-16 1
   vertex -0.03125 -0.03125 1
  endloop
 endfacet
 facet normal -0 0 -1
  outer loop
   vertex 0.0625 1.11022e-16 1
   vertex 0.0625 -0.03125 1
   vertex 0.03125 1.11022e-16 1
  endloop
 endfacet
 facet normal 0 0 -1
  outer loop
   vertex 0.03125 -0.03125 1
   vertex 0.03125 1.11022e-16 1
   vertex 0.0625 -0.03125 1
  endloop
 endfacet
 facet normal 0 0 -1
  outer loop
   vertex -3.33067e-16 0.03125 1
   vertex -0.03125 0.03125 1
   vertex -5.55112e-16 0.0625 1
  endloop
 endfacet
 facet normal 0 0 -1
  outer loop
   vertex -0.03125 0.0625 1
   vertex -5.55112e-16 0.0625 1
   vertex -0.03125 0.03125 1
  endloop
 endfacet
 facet normal 0 0 -1
  outer loop
   vertex -0.46875 0.4375 1
   vertex -0.46875 0.46875 1
   vertex -0.4375 0.4375 1
  endloop
 endfacet
 facet normal 0 0 -1
  outer loop
   vertex -0.4375 0.46875 1
   vertex -0.4375 0.4375 1
   vertex -0.46875 0.46875 1
  endloop
 endfacet
 facet normal -0 0 -1
  outer loop
   vertex -0.0625 0.5 1
   vertex -0.0625 0.53125 1
   vertex -0.03125 0.5 1
  endloop
 endfacet
 facet normal 0 0 -1
  outer loop
   vertex -0.03125 0.53125 1
   vertex -0.03125 0.5 1
   vertex -0.0625 0.53125 1
  endloop
 endfacet
 facet normal 0 0 -1
  outer loop
   vertex -0.21875 -3.77476e-14 1
   vertex -0.21875 0.03125 1
   vertex -0.1875 -3.27516e-14 1
  endloop
 endfacet
 facet normal 0 0 -1
  outer loop
   vertex -0.1875 0.03125 1
   vertex -0.1875 -3.27516e-14 1
   vertex -0.21875 0.03125 1
  endloop
 endfacet
 facet normal -0 0 -1
  outer loop
   vertex -0.0625 0.1875 1
   vertex -0.0625 0.21875 1
   vertex -0.03125 0.1875 1
  endloop
 endfacet
 facet normal 0 0 -1
  outer loop
   vertex -0.03125 0.21875 1
   vertex -0.03125 0.1875 1
   vertex -0.0625 0.21875 1
  endloop
 endfacet
 facet normal -0 0 -1
  outer loop
   vertex -0.1875 0.25 1
   vertex -0.1875 0.21875 1
   vertex -0.21875 0.25 1
  endloop
 endfacet
 facet normal 0 0 -1
  outer loop
   vertex -0.21875 0.21875 1
   vertex -0.21875 0.25 1
   vertex -0.1875 0.21875 1
  endloop
 endfacet
 facet normal -0 0 -1
  outer loop
   vertex -0.25 0.4375 1
   vertex -0.28125 0.4375 1
   vertex -0.25 0.46875 1
  endloop
 endfacet
 facet normal 0 0 -1
  outer loop
   vertex -0.28125 0.46875 1
   vertex -0.25 0.46875 1
   vertex -0.28125 0.4375 1
  endloop
 endfacet
 facet normal -0 0 -1
  outer loop
   vertex -0.0625 0.25 1
   vertex -0.0625 0.28125 1
   vertex -0.03125 0.25 1
  endloop
 endfacet
 facet normal 0 0 -1
  outer loop
   vertex -0.03125 0.28125 1
   vertex -0.03125 0.25 1
   vertex -0.0625 0.28125 1
  endloop
 endfacet
 facet normal -0 0 -1
  outer loop
   vertex -0.1875 0.5 1
   vertex -0.1875 0.46875 1
   vertex -0.21875 0.5 1
  endloop
 endfacet
 facet normal 0 0 -1
  outer loop
   vertex -0.21875 0.46875 1
   vertex -0.21875 0.5 1
   vertex -0.1875 0.46875 1
  endloop
 endfacet
 facet normal -0 0 -1
  outer loop
   vertex -0.1875 0.4375 1
   vertex -0.21875 0.4375 1
   vertex -0.1875 0.46875 1
  endloop
 endfacet
 facet normal 0 0 -1
  outer loop
   vertex -0.21875 0.46875 1
   vertex -0.1875 0.46875 1
   vertex -0.21875 0.4375 1
  endloop
 endfacet
 facet normal -0 0 -1
  outer loop
   vertex 0.3125 -4.08007e-15 1
   vertex 0.28125 -2.33147e-15 1
   vertex 0.3125 0.03125 1
  endloop
 endfacet
 facet normal 0 0 -1
  outer loop
   vertex 0.28125 0.03125 1
   vertex 0.3125 0.03125 1
   vertex 0.28125 -2.33147e-15 1
  endloop
 endfacet
 facet normal 0 0 -1
  outer loop
   vertex -1.11022e-15 0.28125 1
   vertex -5.55112e-16 0.3125 1
   vertex 0.03125 0.28125 1
  endloop
 endfacet
 facet normal 0 0 -1
  outer loop
   vertex 0.03125 0.3125 1
   vertex 0.03125 0.28125 1
   vertex -5.55112e-16 0.3125 1
  endloop
 endfacet
 facet normal -0 0 -1
  outer loop
   vertex 0.25 0.3125 1
   vertex 0.25 0.28125 1
   vertex 0.21875 0.3125 1
  endloop
 endfacet
 facet normal 0 0 -1
  outer loop
   vertex 0.21875 0.28125 1
   vertex 0.21875 0.3125 1
   vertex 0.25 0.28125 1
  endloop
 endfacet
 facet normal -0 0 -1
  outer loop
   vertex 0.1875 0.3125 1
   vertex 0.21875 0.3125 1
   vertex 0.1875 0.28125 1
  endloop
 endfacet
 facet normal 0 0 -1
  outer loop
   vertex 0.21875 0.28125 1
   vertex 0.1875 0.28125 1
   vertex 0.21875 0.3125 1
  endloop
 endfacet
 facet normal -0 0 -1
  outer loop
   vertex 0.25 0.3125 1
   vertex 0.28125 0.3125 1
   vertex 0.25 0.28125 1
  endloop
 endfacet
 facet normal 0 0 -1
  outer loop
   vertex 0.28125 0.28125 1
   vertex 0.25 0.28125 1
   vertex 0.28125 0.3125 1
  endloop
 endfacet
 facet normal 0 0 -1
  outer loop
   vertex -0.21875 0.53125 1
   vertex -0.1875 0.53125 1
   vertex -0.21875 0.5 1
  endloop
 endfacet
 facet normal -0 0 -1
  outer loop
   vertex -0.1875 0.5 1
   vertex -0.21875 0.5 1
   vertex -0.1875 0.53125 1
  endloop
 endfacet
 facet normal 0 0 -1
  outer loop
   vertex -0.1875 0.53125 1
   vertex -0.21875 0.53125 1
   vertex -0.1875 0.5625 1
  endloop
 endfacet
 facet normal 0 0 -1
  outer loop
   vertex -0.21875 0.5625 1
   vertex -0.1875 0.5625 1
   vertex -0.21875 0.53125 1
  endloop
 endfacet
 facet normal -0 0 -1
  outer loop
   vertex -0.4375 -0.0625 1
   vertex -0.4375 -0.09375 1
   vertex -0.46875 -0.0625 1
  endloop
 endfacet
 facet normal 0 0 -1
  outer loop
   vertex -0.46875 -0.09375 1
   vertex -0.46875 -0.0625 1
   vertex -0.4375 -0.09375 1
  endloop
 endfacet
 facet normal -0 0 -1
  outer loop
   vertex -0.0625 -0.0625 1
   vertex -0.03125 -0.0625 1
   vertex -0.0625 -0.09375 1
  endloop
 endfacet
 facet normal 0 0 -1
  outer loop
   vertex -0.03125 -0.09375 1
   vertex -0.0625 -0.09375 1
   vertex -0.03125 -0.0625 1
  endloop
 endfacet
 facet normal -0 0 -1
  outer loop
   vertex -0.125 -0.0625 1
   vertex -0.125 -0.03125 1
   vertex -0.09375 -0.0625 1
  endloop
 endfacet
 facet normal 0 0 -1
  outer loop
   vertex -0.09375 -0.03125 1
   vertex -0.09375 -0.0625 1
   vertex -0.125 -0.03125 1
  endloop
 endfacet
 facet normal -0 0 -1
  outer loop
   vertex -0.125 -0.0625 1
   vertex -0.09375 -0.0625 1
   vertex -0.125 -0.09375 1
  endloop
 endfacet
 facet normal 0 0 -1
  outer loop
   vertex -0.09375 -0.09375 1
   vertex -0.125 -0.09375 1
   vertex -0.09375 -0.0625 1
  endloop
 endfacet
 facet normal -0 0 -1
  outer loop
   vertex 0.0625 -0.0625 1
   vertex 0.0625 -0.03125 1
   vertex 0.09375 -0.0625 1
  endloop
 endfacet
 facet normal 0 0 -1
  outer loop
   vertex 0.09375 -0.03125 1
   vertex 0.09375 -0.0625 1
   vertex 0.0625 -0.03125 1
  endloop
 endfacet
 facet normal -0 0 -1
  outer loop
   vertex -0.125 0.0625 1
   vertex -0.09375 0.0625 1
   vertex -0.125 0.03125 1
  endloop
 endfacet
 facet normal 0 0 -1
  outer loop
   vertex -0.09375 0.03125 1
   vertex -0.125 0.03125 1
   vertex -0.09375 0.0625 1
  endloop
 endfacet
 facet normal 0 0 -1
  outer loop
   vertex -4.996e-16 0.09375 1
   vertex -5.55112e-16 0.0625 1
   vertex -0.03125 0.09375 1
  endloop
 endfacet
 facet normal 0 0 -1
  outer loop
   vertex -0.03125 0.0625 1
   vertex -0.03125 0.09375 1
   vertex -5.55112e-16 0.0625 1
  endloop
 endfacet
 facet normal 0 0 -1
  outer loop
   vertex -0.40625 0.5 1
   vertex -0.40625 0.46875 1
   vertex -0.4375 0.5 1
  endloop
 endfacet
 facet normal 0 0 -1
  outer loop
   vertex -0.4375 0.46875 1
   vertex -0.4375 0.5 1
   vertex -0.40625 0.46875 1
  endloop
 endfacet
 facet normal -0 0 -1
  outer loop
   vertex -2.22045e-16 0.4375 1
   vertex -4.4745e-16 0.40625 1
   vertex -0.03125 0.4375 1
  endloop
 endfacet
 facet normal 0 0 -1
  outer loop
   vertex -4.4745e-16 0.40625 1
   vertex -0.03125 0.40625 1
   vertex -0.03125 0.4375 1
  endloop
 endfacet
 facet normal -0 0 -1
  outer loop
   vertex -0.0625 0.4375 1
   vertex -0.09375 0.4375 1
   vertex -0.0625 0.46875 1
  endloop
 endfacet
 facet normal 0 0 -1
  outer loop
   vertex -0.09375 0.46875 1
   vertex -0.0625 0.46875 1
   vertex -0.09375 0.4375 1
  endloop
 endfacet
 facet normal -0 0 -1
  outer loop
   vertex 0.0625 0.4375 1
   vertex 0.0625 0.40625 1
   vertex 0.03125 0.4375 1
  endloop
 endfacet
 facet normal 0 0 -1
  outer loop
   vertex 0.03125 0.40625 1
   vertex 0.03125 0.4375 1
   vertex 0.0625 0.40625 1
  endloop
 endfacet
 facet normal -0 0 -1
  outer loop
   vertex 0.0625 0.375 1
   vertex 0.0625 0.40625 1
   vertex 0.09375 0.375 1
  endloop
 endfacet
 facet normal 0 0 -1
  outer loop
   vertex 0.09375 0.40625 1
   vertex 0.09375 0.375 1
   vertex 0.0625 0.40625 1
  endloop
 endfacet
 facet normal -0 0 -1
  outer loop
   vertex -0.0625 0.5 1
   vertex -0.09375 0.5 1
   vertex -0.0625 0.53125 1
  endloop
 endfacet
 facet normal 0 0 -1
  outer loop
   vertex -0.09375 0.53125 1
   vertex -0.0625 0.53125 1
   vertex -0.09375 0.5 1
  endloop
 endfacet
 facet normal -0 0 -1
  outer loop
   vertex -0.0625 0.5625 1
   vertex -0.0625 0.53125 1
   vertex -0.09375 0.5625 1
  endloop
 endfacet
 facet normal 0 0 -1
  outer loop
   vertex -0.09375 0.53125 1
   vertex -0.09375 0.5625 1
   vertex -0.0625 0.53125 1
  endloop
 endfacet
 facet normal -0 0 -1
  outer loop
   vertex -0.375 -0.0625 1
   vertex -0.375 -0.03125 1
   vertex -0.34375 -0.0625 1
  endloop
 endfacet
 facet normal 0 0 -1
  outer loop
   vertex -0.34375 -0.03125 1
   vertex -0.34375 -0.0625 1
   vertex -0.375 -0.03125 1
  endloop
 endfacet
 facet normal -0 0 -1
  outer loop
   vertex -0.375 -0.0625 1
   vertex -0.34375 -0.0625 1
   vertex -0.375 -0.09375 1
  endloop
 endfacet
 facet normal 0 0 -1
  outer loop
   vertex -0.34375 -0.09375 1
   vertex -0.375 -0.09375 1
   vertex -0.34375 -0.0625 1
  endloop
 endfacet
 facet normal -0 0 -1
  outer loop
   vertex -0.125 -0.0625 1
   vertex -0.125 -0.09375 1
   vertex -0.15625 -0.0625 1
  endloop
 endfacet
 facet normal 0 0 -1
  outer loop
   vertex -0.15625 -0.09375 1
   vertex -0.15625 -0.0625 1
   vertex -0.125 -0.09375 1
  endloop
 endfacet
 facet normal -0 0 -1
  outer loop
   vertex 0.1875 -0.0625 1
   vertex 0.15625 -0.0625 1
   vertex 0.1875 -0.03125 1
  endloop
 endfacet
 facet normal 0 0 -1
  outer loop
   vertex 0.15625 -0.03125 1
   vertex 0.1875 -0.03125 1
   vertex 0.15625 -0.0625 1
  endloop
 endfacet
 facet normal -0 0 -1
  outer loop
   vertex -0.1875 0.0625 1
   vertex -0.15625 0.0625 1
   vertex -0.1875 0.03125 1
  endloop
 endfacet
 facet normal 0 0 -1
  outer loop
   vertex -0.15625 0.03125 1
   vertex -0.1875 0.03125 1
   vertex -0.15625 0.0625 1
  endloop
 endfacet
 facet normal -0 0 -1
  outer loop
   vertex -0.1875 0.125 1
   vertex -0.1875 0.09375 1
   vertex -0.21875 0.125 1
  endloop
 endfacet
 facet normal 0 0 -1
  outer loop
   vertex -0.21875 0.09375 1
   vertex -0.21875 0.125 1
   vertex -0.1875 0.09375 1
  endloop
 endfacet
 facet normal -0 0 -1
  outer loop
   vertex -0.125 0.0625 1
   vertex -0.15625 0.0625 1
   vertex -0.125 0.09375 1
  endloop
 endfacet
 facet normal 0 0 -1
  outer loop
   vertex -0.15625 0.09375 1
   vertex -0.125 0.09375 1
   vertex -0.15625 0.0625 1
  endloop
 endfacet
 facet normal -0 0 -1
  outer loop
   vertex -0.1875 0.0625 1
   vertex -0.1875 0.09375 1
   vertex -0.15625 0.0625 1
  endloop
 endfacet
 facet normal 0 0 -1
  outer loop
   vertex -0.15625 0.09375 1
   vertex -0.15625 0.0625 1
   vertex -0.1875 0.09375 1
  endloop
 endfacet
 facet normal 0 0 -1
  outer loop
   vertex 1.11022e-15 0.15625 1
   vertex -0.03125 0.15625 1
   vertex -4.16334e-16 0.1875 1
  endloop
 endfacet
 facet normal 0 0 -1
  outer loop
   vertex -0.03125 0.1875 1
   vertex -4.16334e-16 0.1875 1
   vertex -0.03125 0.15625 1
  endloop
 endfacet
 facet normal -0 0 -1
  outer loop
   vertex -0.0625 0.1875 1
   vertex -0.0625 0.15625 1
   vertex -0.09375 0.1875 1
  endloop
 endfacet
 facet normal 0 0 -1
  outer loop
   vertex -0.09375 0.15625 1
   vertex -0.09375 0.1875 1
   vertex -0.0625 0.15625 1
  endloop
 endfacet
 facet normal -0 0 -1
  outer loop
   vertex -0.1875 0.125 1
   vertex -0.21875 0.125 1
   vertex -0.1875 0.15625 1
  endloop
 endfacet
 facet normal 0 0 -1
  outer loop
   vertex -0.21875 0.15625 1
   vertex -0.1875 0.15625 1
   vertex -0.21875 0.125 1
  endloop
 endfacet
 facet normal -0 0 -1
  outer loop
   vertex -0.125 0.1875 1
   vertex -0.125 0.15625 1
   vertex -0.15625 0.1875 1
  endloop
 endfacet
 facet normal 0 0 -1
  outer loop
   vertex -0.15625 0.15625 1
   vertex -0.15625 0.1875 1
   vertex -0.125 0.15625 1
  endloop
 endfacet
 facet normal -0 0 -1
  outer loop
   vertex -0.1875 0.1875 1
   vertex -0.15625 0.1875 1
   vertex -0.1875 0.15625 1
  endloop
 endfacet
 facet normal 0 0 -1
  outer loop
   vertex -0.15625 0.15625 1
   vertex -0.1875 0.15625 1
   vertex -0.15625 0.1875 1
  endloop
 endfacet
 facet normal -0 0 -1
  outer loop
   vertex -0.25 0.4375 1
   vertex -0.25 0.40625 1
   vertex -0.28125 0.4375 1
  endloop
 endfacet
 facet normal 0 0 -1
  outer loop
   vertex -0.28125 0.40625 1
   vertex -0.28125 0.4375 1
   vertex -0.25 0.40625 1
  endloop
 endfacet
 facet normal -0 0 -1
  outer loop
   vertex -0.125 0.3125 1
   vertex -0.09375 0.3125 1
   vertex -0.125 0.28125 1
  endloop
 endfacet
 facet normal 0 0 -1
  outer loop
   vertex -0.09375 0.28125 1
   vertex -0.125 0.28125 1
   vertex -0.09375 0.3125 1
  endloop
 endfacet
 facet normal -0 0 -1
  outer loop
   vertex -0.0625 0.375 1
   vertex -0.0625 0.34375 1
   vertex -0.09375 0.375 1
  endloop
 endfacet
 facet normal 0 0 -1
  outer loop
   vertex -0.09375 0.34375 1
   vertex -0.09375 0.375 1
   vertex -0.0625 0.34375 1
  endloop
 endfacet
 facet normal -0 0 -1
  outer loop
   vertex -0.0625 0.3125 1
   vertex -0.09375 0.3125 1
   vertex -0.0625 0.34375 1
  endloop
 endfacet
 facet normal 0 0 -1
  outer loop
   vertex -0.09375 0.34375 1
   vertex -0.0625 0.34375 1
   vertex -0.09375 0.3125 1
  endloop
 endfacet
 facet normal -0 0 -1
  outer loop
   vertex -0.1875 0.5 1
   vertex -0.15625 0.5 1
   vertex -0.1875 0.46875 1
  endloop
 endfacet
 facet normal 0 0 -1
  outer loop
   vertex -0.15625 0.46875 1
   vertex -0.1875 0.46875 1
   vertex -0.15625 0.5 1
  endloop
 endfacet
 facet normal -0 0 -1
  outer loop
   vertex -0.1875 0.4375 1
   vertex -0.1875 0.46875 1
   vertex -0.15625 0.4375 1
  endloop
 endfacet
 facet normal 0 0 -1
  outer loop
   vertex -0.15625 0.46875 1
   vertex -0.15625 0.4375 1
   vertex -0.1875 0.46875 1
  endloop
 endfacet
 facet normal -0 0 -1
  outer loop
   vertex -0.25 0.4375 1
   vertex -0.21875 0.4375 1
   vertex -0.25 0.40625 1
  endloop
 endfacet
 facet normal 0 0 -1
  outer loop
   vertex -0.21875 0.40625 1
   vertex -0.25 0.40625 1
   vertex -0.21875 0.4375 1
  endloop
 endfacet
 facet normal -0 0 -1
  outer loop
   vertex -0.1875 0.375 1
   vertex -0.1875 0.40625 1
   vertex -0.15625 0.375 1
  endloop
 endfacet
 facet normal 0 0 -1
  outer loop
   vertex -0.15625 0.40625 1
   vertex -0.15625 0.375 1
   vertex -0.1875 0.40625 1
  endloop
 endfacet
 facet normal -0 0 -1
  outer loop
   vertex -0.1875 0.25 1
   vertex -0.1875 0.28125 1
   vertex -0.15625 0.25 1
  endloop
 endfacet
 facet normal 0 0 -1
  outer loop
   vertex -0.15625 0.28125 1
   vertex -0.15625 0.25 1
   vertex -0.1875 0.28125 1
  endloop
 endfacet
 facet normal -0 0 -1
  outer loop
   vertex -0.1875 0.375 1
   vertex -0.15625 0.375 1
   vertex -0.1875 0.34375 1
  endloop
 endfacet
 facet normal 0 0 -1
  outer loop
   vertex -0.15625 0.34375 1
   vertex -0.1875 0.34375 1
   vertex -0.15625 0.375 1
  endloop
 endfacet
 facet normal -0 0 -1
  outer loop
   vertex 0.25 0.0625 1
   vertex 0.25 0.09375 1
   vertex 0.28125 0.0625 1
  endloop
 endfacet
 facet normal 0 0 -1
  outer loop
   vertex 0.28125 0.09375 1
   vertex 0.28125 0.0625 1
   vertex 0.25 0.09375 1
  endloop
 endfacet
 facet normal -0 0 -1
  outer loop
   vertex 0.3125 0.125 1
   vertex 0.3125 0.09375 1
   vertex 0.28125 0.125 1
  endloop
 endfacet
 facet normal 0 0 -1
  outer loop
   vertex 0.28125 0.09375 1
   vertex 0.28125 0.125 1
   vertex 0.3125 0.09375 1
  endloop
 endfacet
 facet normal -0 0 -1
  outer loop
   vertex 0.0625 0.375 1
   vertex 0.09375 0.375 1
   vertex 0.0625 0.34375 1
  endloop
 endfacet
 facet normal 0 0 -1
  outer loop
   vertex 0.09375 0.34375 1
   vertex 0.0625 0.34375 1
   vertex 0.09375 0.375 1
  endloop
 endfacet
 facet normal -0 0 -1
  outer loop
   vertex 0.125 0.3125 1
   vertex 0.09375 0.3125 1
   vertex 0.125 0.34375 1
  endloop
 endfacet
 facet normal 0 0 -1
  outer loop
   vertex 0.09375 0.34375 1
   vertex 0.125 0.34375 1
   vertex 0.09375 0.3125 1
  endloop
 endfacet
 facet normal -0 0 -1
  outer loop
   vertex 0.1875 0.5 1
   vertex 0.1875 0.46875 1
   vertex 0.15625 0.5 1
  endloop
 endfacet
 facet normal 0 0 -1
  outer loop
   vertex 0.15625 0.46875 1
   vertex 0.15625 0.5 1
   vertex 0.1875 0.46875 1
  endloop
 endfacet
 facet normal -0 0 -1
  outer loop
   vertex 0.125 0.4375 1
   vertex 0.125 0.46875 1
   vertex 0.15625 0.4375 1
  endloop
 endfacet
 facet normal 0 0 -1
  outer loop
   vertex 0.15625 0.46875 1
   vertex 0.15625 0.4375 1
   vertex 0.125 0.46875 1
  endloop
 endfacet
 facet normal -0 0 -1
  outer loop
   vertex 0.1875 0.375 1
   vertex 0.1875 0.40625 1
   vertex 0.21875 0.375 1
  endloop
 endfacet
 facet normal 0 0 -1
  outer loop
   vertex 0.21875 0.40625 1
   vertex 0.21875 0.375 1
   vertex 0.1875 0.40625 1
  endloop
 endfacet
 facet normal -0 0 -1
  outer loop
   vertex 0.1875 0.3125 1
   vertex 0.1875 0.34375 1
   vertex 0.21875 0.3125 1
  endloop
 endfacet
 facet normal 0 0 -1
  outer loop
   vertex 0.21875 0.34375 1
   vertex 0.21875 0.3125 1
   vertex 0.1875 0.34375 1
  endloop
 endfacet
 facet normal -0 0 -1
  outer loop
   vertex 0.125 0.3125 1
   vertex 0.125 0.34375 1
   vertex 0.15625 0.3125 1
  endloop
 endfacet
 facet normal 0 0 -1
  outer loop
   vertex 0.15625 0.34375 1
   vertex 0.15625 0.3125 1
   vertex 0.125 0.34375 1
  endloop
 endfacet
 facet normal -0 0 -1
  outer loop
   vertex 0.1875 0.375 1
   vertex 0.1875 0.34375 1
   vertex 0.15625 0.375 1
  endloop
 endfacet
 facet normal 0 0 -1
  outer loop
   vertex 0.15625 0.34375 1
   vertex 0.15625 0.375 1
   vertex 0.1875 0.34375 1
  endloop
 endfacet
endsolid
